<svg width="184" height="102" viewBox="0 0 184 102" fill="none" xmlns="http://www.w3.org/2000/svg">
<path d="M57.77 64.1096C62.0455 49.5016 76.8136 43.5823 90.2361 39.0643C107.527 33.2441 125.652 29.5725 143.341 25.1502" stroke="white" stroke-width="0.5" stroke-linecap="round"/>
<path d="M171.169 21.6714C118.818 46.3778 67.4998 72.5021 16.7227 100.286" stroke="white" stroke-width="0.5" stroke-linecap="round"/>
<path d="M0.72168 100.982C17.2535 69.2849 37.4522 39.1211 65.8085 16.6472C72.0149 11.7283 79.631 6.03731 87.6072 4.47236C97.5068 2.53003 101.069 14.312 104.497 21.1692C108.739 29.6522 112.796 37.62 120.228 43.8569C128.98 51.2014 141.016 58.0134 152.849 56.9206C153.014 56.9053 164.178 55.1831 163.4 52.9783C162.444 50.2681 158.117 50.6353 155.322 49.9636C147.412 48.0621 140.381 46.8483 132.287 45.4029C115.04 42.323 96.6606 40.4227 82.2348 29.479C81.7109 29.0815 75.2128 24.3662 76.9398 22.1355C79.9959 18.188 94.8515 25.0557 97.1925 26.0005C110.602 31.4121 123.401 38.4596 135.765 45.9053C150.299 54.6574 164.851 64.1203 175.884 77.2119C178.364 80.1549 184.981 89.5156 182.145 86.9131C175.255 80.5888 170.006 70.9735 164.908 63.2592C154.976 48.2339 146.023 32.467 138.316 16.1834C136.063 11.422 128.915 -2.65458 131.591 1.8828C140.576 17.1187 145.516 33.0149 146.124 50.8912C146.651 66.4259 139.381 88.7637 123.049 94.2953C114.079 97.3338 103.169 95.6472 94.8734 91.3192C86.7974 87.1057 96.5857 85.3776 100.594 84.5168C119.508 80.4548 138.461 76.4723 157.255 71.8782C160.929 70.98 166.043 70.2462 169.546 68.4384C171.451 67.4549 165.596 66.7167 163.516 66.1966" stroke="white" stroke-width="0.5" stroke-linecap="round"/>
</svg>
