<svg width="92" height="130" viewBox="0 0 92 130" fill="none" xmlns="http://www.w3.org/2000/svg">
<path fill-rule="evenodd" clip-rule="evenodd" d="M49.681 0C48.8958 0.858384 47.8607 1.33989 46.6455 1.539C46.7829 -0.295609 48.3936 0.101584 49.681 0Z" fill="#F4D06F"/>
<path fill-rule="evenodd" clip-rule="evenodd" d="M45.9639 1.02603C43.6592 3.61947 39.6076 5.93559 36.4999 5.64201C35.7372 5.92949 36.9097 6.44147 36.1624 7.17999C33.0831 7.08958 29.4117 11.0402 26.3608 10.77C32.4175 7.31408 39.0119 2.43805 45.9639 1.02603Z" fill="#F4D06F"/>
<path fill-rule="evenodd" clip-rule="evenodd" d="M39.204 1.53945C38.1785 3.4378 38.0646 -0.0192925 39.204 1.53945V1.53945Z" fill="#F4D06F"/>
<path fill-rule="evenodd" clip-rule="evenodd" d="M58.1327 1.02603H59.8228C60.3368 2.60261 57.6128 2.60261 58.1327 1.02603Z" fill="#F4D06F"/>
<path fill-rule="evenodd" clip-rule="evenodd" d="M35.1475 3.07852C35.1973 2.9382 35.8766 2.12985 36.1635 2.56504C36.397 2.9199 34.8286 3.9794 35.1475 3.07852Z" fill="#F4D06F"/>
<path fill-rule="evenodd" clip-rule="evenodd" d="M50.6952 2.56509C50.0402 4.6242 48.0138 3.58093 46.6388 4.10308C45.1395 4.66687 43.742 5.61566 42.9212 6.66807C39.9248 6.36332 38.1507 10.0071 35.8235 11.284C33.3198 12.6554 30.764 11.924 28.7258 14.873C25.5281 14.6993 24.9845 15.9467 22.6431 16.412C23.1488 14.7389 24.6292 14.4951 25.6844 13.847C27.7084 12.6087 30.0913 12.18 32.7821 10.77C33.8362 10.2174 34.6913 8.80844 35.8235 8.20605C37.8925 7.11098 40.6046 7.57115 41.9074 4.61607C44.9926 4.16504 47.5365 2.90032 50.6952 2.56509Z" fill="#F4D06F"/>
<path fill-rule="evenodd" clip-rule="evenodd" d="M54.4116 4.10297C54.4851 6.3307 51.6095 6.01579 51.0327 5.64196C51.4058 3.98513 53.3872 4.77444 54.4116 4.10297Z" fill="#F4D06F"/>
<path fill-rule="evenodd" clip-rule="evenodd" d="M55.088 4.10314C55.7855 4.41399 57.4365 3.27523 57.1155 5.12914C56.4203 4.81931 54.7682 5.95705 55.088 4.10314Z" fill="#F4D06F"/>
<path fill-rule="evenodd" clip-rule="evenodd" d="M60.1587 4.6159C60.0236 3.62139 61.6983 3.86722 61.1724 5.1289H60.5009C60.5578 4.69208 60.3635 4.64536 60.1587 4.6159Z" fill="#F4D06F"/>
<path fill-rule="evenodd" clip-rule="evenodd" d="M49.6811 5.12903H50.3581C50.5169 6.22411 49.8744 6.10718 49.3433 6.15599C49.4085 5.74012 49.6823 5.64353 49.6811 5.12903Z" fill="#F4D06F"/>
<path fill-rule="evenodd" clip-rule="evenodd" d="M47.3152 7.69287C46.7088 7.75789 46.6046 7.06509 45.9639 7.18495C46.0243 5.68862 47.5698 5.94461 47.3152 7.69287Z" fill="#F4D06F"/>
<path fill-rule="evenodd" clip-rule="evenodd" d="M25.0087 18.976C24.9139 18.147 25.3284 18.0922 25.3462 17.438H27.375C28.2514 16.2027 29.3753 15.3443 31.0926 15.386C31.8328 14.6282 32.9117 14.3864 33.4612 13.334C35.6511 13.1816 37.4276 11.5177 39.544 10.77C42.5214 9.72166 45.5627 9.2625 48.3317 8.20603C48.9239 7.98153 49.6641 8.36247 50.0218 8.20603C50.8614 7.84134 51.0237 6.82448 51.7118 6.66805C54.0805 6.12863 55.9837 7.03172 58.1332 6.16013C58.029 7.76414 56.4278 7.36999 55.4282 7.69811C53.6636 8.27815 50.2266 8.60424 48.6693 10.2631C44.7136 10.0406 40.3398 12.3232 36.8413 14.3651C35.8335 13.6286 34.7818 16.1651 34.8126 13.8521C34.3258 13.9689 34.6941 15.3829 34.1363 15.3911C31.3058 16.3937 29.2806 18.6255 26.3636 19.494C25.7548 19.554 25.6482 18.8622 25.0087 18.976Z" fill="#F4D06F"/>
<path fill-rule="evenodd" clip-rule="evenodd" d="M60.1594 6.155C59.4157 7.7229 57.9933 5.56221 60.1594 6.155V6.155Z" fill="#F4D06F"/>
<path fill-rule="evenodd" clip-rule="evenodd" d="M45.6265 7.18006C44.6707 8.80541 42.1303 8.02931 40.8892 9.23206C41.7324 6.67214 43.7801 6.9708 45.6265 7.18006Z" fill="#F4D06F"/>
<path fill-rule="evenodd" clip-rule="evenodd" d="M69.621 8.20589C68.1667 10.7455 65.8644 8.53603 63.8747 8.71381C61.885 8.89158 59.4595 11.547 58.4682 9.22173C57.4023 8.97386 57.7019 10.7963 56.4395 10.2477C56.9665 8.46086 59.0793 7.9184 60.8333 7.68273C63.6248 7.31906 67.2915 7.2256 69.621 8.20589Z" fill="#F4D06F"/>
<path fill-rule="evenodd" clip-rule="evenodd" d="M77.0572 13.8468C68.9422 10.2386 57.1095 14.5132 51.0327 14.3598C52.5842 12.4104 55.3449 12.8147 57.7917 12.3088C62.4627 11.3428 70.3266 8.89563 75.366 12.3088C75.9759 12.7213 77.2574 12.1158 77.0572 13.8468Z" fill="#F4D06F"/>
<path fill-rule="evenodd" clip-rule="evenodd" d="M78.0708 15.8989C76.8746 16.551 75.3018 16.3326 73.6769 15.8989C73.4021 15.8257 72.6572 14.9003 72.3256 14.8729C69.2629 14.624 64.875 15.8989 60.8376 16.4119C57.5404 16.8304 54.6234 17.7904 52.0498 17.4379C52.0676 15.1116 53.6925 16.6181 54.4185 16.4119C55.0545 16.23 55.495 15.4519 56.1085 15.3859C57.4812 15.2386 59.2257 16.2178 60.5036 15.8938C61.9603 15.5291 63.7806 13.9261 66.2488 13.8418C70.0611 13.7189 73.8297 13.1856 78.0708 15.8989Z" fill="#F4D06F"/>
<path fill-rule="evenodd" clip-rule="evenodd" d="M51.7094 17.4378C50.6909 18.5217 50.1082 17.2935 48.6669 17.9457C48.1801 18.0615 48.5485 19.4776 47.9918 19.4847C44.3998 20.5127 41.1961 21.9227 37.8528 23.5867C34.4478 25.2811 31.2655 28.4972 27.375 29.2286C29.7152 25.4162 33.7242 24.6949 37.1765 22.5617C41.6225 19.8169 45.8316 16.4981 51.7094 17.4378Z" fill="#F4D06F"/>
<path fill-rule="evenodd" clip-rule="evenodd" d="M65.2266 16.9239C71.2998 16.4282 75.7672 18.3766 80.7745 19.4889C80.8302 22.7691 83.0248 19.7114 83.1432 22.5659C79.1295 21.5277 76.049 21.1539 73.3428 18.9759C72.4617 19.7073 71.1139 19.62 69.9615 19.4838C68.2952 19.301 65.6482 18.6488 65.2266 16.9239Z" fill="#F4D06F"/>
<path fill-rule="evenodd" clip-rule="evenodd" d="M65.2269 20.0009C61.7379 21.4911 57.7242 19.943 54.0753 21.0279C54.0622 18.082 56.1336 18.9749 58.8126 18.9759C60.0881 17.574 64.2794 17.8057 65.2269 20.0009Z" fill="#F4D06F"/>
<path fill-rule="evenodd" clip-rule="evenodd" d="M20.6152 21.5359C21.6634 20.0497 23.3558 19.5418 24.6704 18.4589C25.5326 21.7543 22.7056 20.7171 20.6152 21.5359Z" fill="#F4D06F"/>
<path fill-rule="evenodd" clip-rule="evenodd" d="M10.8136 43.0796C10.5768 41.6493 12.4954 40.9087 12.8412 42.0536C15.8956 36.7712 21.3684 35.153 25.3454 31.2857C26.1164 31.1424 26.6174 31.4086 26.6991 32.3107C27.797 31.7123 26.6872 30.9697 27.7129 30.2587C29.0156 30.0392 28.915 29.6989 29.7404 30.7717C36.4722 25.601 45.1782 20.6935 53.7361 20.0038C53.4803 22.521 50.394 20.7443 49.6798 22.5687C48.3688 21.7561 46.2855 22.4235 45.6258 24.1067C40.6517 24.6421 36.0802 29.0996 31.4305 31.2877C26.4373 33.6353 21.719 35.2322 18.5864 40.5176C18.6527 40.1021 18.9263 40.0097 18.9251 39.4926C16.548 41.3073 14.0665 43.0188 11.4899 44.6206C11.6048 43.5885 11.42 43.0135 10.8136 43.0796Z" fill="#F4D06F"/>
<path fill-rule="evenodd" clip-rule="evenodd" d="M65.566 19.489C72.306 21.3968 79.6406 22.4065 84.8303 26.668C83.5678 29.2127 82.8027 25.0183 80.4364 26.668C77.549 23.722 72.3723 23.8236 68.6073 22.566C67.5414 22.2095 66.9694 20.5506 65.9035 21.54C65.6406 21.0839 65.5399 20.383 65.566 19.489Z" fill="#F4D06F"/>
<path fill-rule="evenodd" clip-rule="evenodd" d="M70.6359 24.6178C70.2225 27.3281 68.4638 24.7946 67.5933 24.6178C65.9696 24.2866 64.4501 24.2745 62.8559 24.1038C62.7067 23.6477 62.5599 23.1895 62.1797 23.0788C64.5638 20.3746 68.3904 23.7604 70.6359 24.6178Z" fill="#F4D06F"/>
<path fill-rule="evenodd" clip-rule="evenodd" d="M72.3262 25.1298C72.5064 23.922 73.9267 24.8169 73.002 25.6428C72.7293 25.5453 72.6653 25.1278 72.3262 25.1298Z" fill="#F4D06F"/>
<path fill-rule="evenodd" clip-rule="evenodd" d="M74.3582 25.1298C75.443 24.6797 75.0581 26.4595 75.7095 26.6677C80.6932 27.4804 84.4274 30.1927 87.8761 33.3357C86.346 34.4938 84.5955 31.9958 82.8072 31.2847C80.9418 30.5411 78.6881 31.1832 77.3995 29.2327C74.8106 29.9591 72.9216 29.2551 71.3168 27.6948C69.3508 29.7498 67.1148 27.4215 64.8954 27.1807C60.331 26.687 55.5155 28.7634 51.0387 28.7187C50.4098 29.1342 49.6732 29.3821 49.3486 30.2577C44.4514 29.7061 41.2182 32.1533 37.5195 32.3097C40.4472 28.7868 46.1012 28.3642 51.3762 27.1807C56.8301 25.9617 61.5413 24.3232 66.5842 25.6428C68.5407 26.1507 71.5939 26.4402 74.0206 26.6677C74.4114 26.5865 74.3013 25.7332 74.3582 25.1298Z" fill="#F4D06F"/>
<path fill-rule="evenodd" clip-rule="evenodd" d="M81.4507 33.8477C82.6433 33.6974 80.2581 32.4611 81.4507 32.3097C83.4901 35.1968 86.9531 35.9251 88.8859 38.9767C88.7568 40.6183 86.4794 39.1799 86.1809 37.9507C83.56 37.9619 82.4136 35.4964 80.4369 35.8997C79.5285 35.0555 78.086 35.02 77.3944 33.8477C73.2954 34.6736 68.4266 30.7301 62.5239 32.3097C64.5906 31.6058 58.7601 31.1527 57.7866 31.2848C56.3772 31.4757 54.7606 33.0117 53.0563 33.3357C49.9771 33.9198 48.5926 34.1941 45.6211 35.8997C45.1415 36.174 44.6973 35.6651 44.2686 35.8997C39.2305 38.6669 34.8129 40.4862 30.412 43.5927C26.0903 46.6402 22.7031 52.2893 18.2441 52.3106C23.4232 47.4854 28.5371 41.4411 35.1422 37.9507C38.9912 35.919 45.1083 36.2888 46.6302 32.3097C48.9349 32.2833 51.4729 30.2262 53.7279 31.2848C54.4124 30.4254 57.1056 28.9636 57.4455 30.7707C63.7331 26.232 72.2401 31.5621 78.3998 31.7967C78.9766 33.1671 80.7401 32.7029 81.4507 33.8477Z" fill="#F4D06F"/>
<path fill-rule="evenodd" clip-rule="evenodd" d="M45.6263 31.7958C44.3662 34.8545 41.9999 34.2765 40.2175 34.8728C35.8916 36.326 31.89 38.4078 28.3884 41.0267C23.6925 44.5822 20.0022 50.7361 14.5317 52.3097C14.5732 50.4101 15.0244 51.0196 15.8842 51.2847C17.2403 48.7339 19.1909 46.3345 21.2919 44.1047C23.4651 41.7957 25.6182 39.5213 28.7259 38.4628C31.1112 37.6501 33.5391 34.7265 35.8236 33.8468C39.2641 32.5252 42.5092 32.2854 45.6263 31.7958Z" fill="#F4D06F"/>
<path fill-rule="evenodd" clip-rule="evenodd" d="M20.9531 32.8228H21.6301C21.7889 33.9179 21.1475 33.801 20.6152 33.8488C20.6793 33.4329 20.9543 33.3373 20.9531 32.8228Z" fill="#F4D06F"/>
<path fill-rule="evenodd" clip-rule="evenodd" d="M74.3579 34.3618C73.9659 35.1196 73.9659 35.654 74.3579 36.4128C74.9347 36.1466 76.3322 36.5499 77.3993 35.8998C77.9997 36.2757 77.4478 36.8323 77.3993 37.4378C81.7422 36.5936 86.1349 39.8341 88.5521 43.5927C86.4499 44.8676 83.9687 40.2283 81.7931 41.5408C81.6044 40.8026 81.2665 40.2903 80.7794 40.0038C71.3758 36.5784 60.3816 34.0479 49.6847 37.4378C44.9628 38.9351 40.8816 42.2813 36.843 43.0797C28.9447 49.9001 20.1274 55.3257 12.5086 62.5666C11.933 62.7566 11.8702 62.1674 11.8323 61.5416C11.1632 65.1438 8.01638 64.9833 6.42583 67.1836C5.95209 65.5938 7.06064 65.8346 6.08594 64.1066C7.55451 65.414 8.00454 61.375 9.80354 61.5416C10.9796 58.5398 13.9487 58.2584 15.8886 56.4126C16.5661 56.2389 16.9463 56.5142 16.9024 57.4386C17.4674 55.9037 18.0986 54.4683 18.93 53.3367H20.62C23.1841 51.5874 25.1039 48.8589 28.0565 47.6947C37.1379 39.2876 49.3389 35.5046 60.5012 32.8228C60.5367 33.5075 61.1408 33.1459 61.515 33.3358C62.8178 33.9931 62.4163 33.539 64.2176 33.3358C67.3893 32.9721 70.1938 34.5284 73.0054 35.3868C74.0938 36.0217 73.26 33.7259 74.3579 34.3618Z" fill="#F4D06F"/>
<path fill-rule="evenodd" clip-rule="evenodd" d="M9.12469 76.9274C9.36866 75.36 8.78007 75.0583 8.78717 73.8504C9.66437 73.543 10.0019 74.0556 9.79975 75.3884C10.7472 74.4996 10.1184 74.0455 10.1385 72.3114C12.5533 73.1048 13.425 66.1412 14.8758 70.2605C15.4135 67.4862 16.9922 66.2926 17.9172 64.1065C21.0793 63.948 21.5318 59.6754 24.6762 59.4905C27.9603 54.9944 33.3324 51.4918 38.1965 48.7226C39.6023 47.9201 41.0495 47.4467 42.5892 46.6706C44.5481 45.6812 46.3127 43.7592 48.3344 43.0806C52.0496 41.8332 55.9484 42.3015 59.4884 41.5416C59.9811 41.4401 60.636 40.5258 61.1784 40.5157C67.7017 40.4364 73.9218 44.3525 80.1029 45.6446C82.603 49.3697 87.6234 49.2681 89.9008 53.3366C79.2419 49.5068 67.8794 39.7487 55.0886 43.5926C47.0221 46.0174 38.4819 49.7303 32.1066 54.8756C30.6926 56.0174 28.2813 57.5411 26.7002 58.9775C26.3449 59.3006 26.7653 60.0188 26.3615 60.5165C26.0133 60.9442 24.9948 60.802 24.3339 61.5415C23.2787 62.7219 21.7556 65.4433 19.9388 66.1565C19.2116 67.3155 18.1162 69.9344 16.8987 68.7215C17.2859 70.3346 16.3681 69.9679 16.2212 70.7735C13.0626 72.6721 11.8712 75.1131 9.12469 76.9274Z" fill="#F4D06F"/>
<path fill-rule="evenodd" clip-rule="evenodd" d="M10.8146 43.0797C11.2776 45.2018 8.25997 48.5521 6.42188 47.1827C6.60071 45.7453 8.05034 46.2349 8.79055 45.6437C9.28442 44.5192 9.51298 42.9873 10.8146 43.0797Z" fill="#F4D06F"/>
<path fill-rule="evenodd" clip-rule="evenodd" d="M86.8585 65.1325C79.5298 59.6693 72.9698 50.3094 62.8627 50.7726C60.6658 47.7738 57.2751 49.6389 54.7524 48.7216C56.1298 47.081 58.187 46.9531 60.1601 47.6946C64.3053 49.2621 72.5411 48.6424 76.3854 54.3616C80.4986 55.032 84.1487 60.6384 86.8585 65.1325Z" fill="#F4D06F"/>
<path fill-rule="evenodd" clip-rule="evenodd" d="M14.8708 48.7216H15.5478C15.7054 49.8157 15.0629 49.6988 14.5317 49.7465C14.5969 49.3317 14.872 49.2361 14.8708 48.7216Z" fill="#F4D06F"/>
<path fill-rule="evenodd" clip-rule="evenodd" d="M7.77117 50.2598C8.6487 50.917 7.92393 52.6978 8.44737 52.8237C8.36447 53.3814 7.77591 53.1722 7.77117 53.8497C6.69114 52.3158 7.45142 51.1862 7.77117 50.2598Z" fill="#F4D06F"/>
<path fill-rule="evenodd" clip-rule="evenodd" d="M12.5045 51.2862C12.5543 51.1449 13.2325 50.3366 13.5194 50.7728C13.753 51.1276 12.1809 52.1861 12.5045 51.2862Z" fill="#F4D06F"/>
<path fill-rule="evenodd" clip-rule="evenodd" d="M87.8714 57.9517C84.4569 60.9373 81.8584 54.1931 78.746 53.3367C78.7033 52.4154 79.1605 52.2559 79.0847 51.2858C82.8924 52.1746 84.0791 57.0405 87.8714 57.9517Z" fill="#F4D06F"/>
<path fill-rule="evenodd" clip-rule="evenodd" d="M16.5625 87.1844C15.5274 83.824 18.7796 83.6706 19.2652 81.0305C19.8123 80.8852 19.8478 81.514 20.2801 81.5384C20.8012 79.4244 22.0187 78.3649 22.6488 76.4104C26.5571 72.7615 29.6577 68.4869 34.1368 64.6145C36.1502 62.8693 37.1806 61.7153 39.5445 59.9995C40.9467 58.9837 42.3549 57.4914 44.2818 57.9475C45.3145 56.7803 46.7559 56.2348 47.6607 54.8716C47.9331 55.3125 48.5868 55.1763 48.6745 55.8966C50.6416 51.7651 56.934 53.0177 61.5186 52.3066C68.3877 51.241 75.4344 57.1186 80.1054 61.0245C80.1054 62.0404 81.0292 61.6767 80.7829 63.0765C82.9147 64.8573 86.3078 67.2658 86.5281 70.2565C82.4315 67.4121 78.7387 63.9583 76.0503 58.9735C73.6023 59.2224 70.8487 55.6426 67.6013 54.8716C66.3127 54.5668 64.8773 54.6003 63.5461 54.8716C62.954 54.3972 61.7317 54.8889 61.8561 53.3326C61.541 53.7084 61.3433 54.2651 61.181 54.8716C58.6939 53.617 54.3995 55.9555 52.0546 54.8716C46.9951 58.2614 41.7509 60.6812 36.8466 64.6145C34.3074 66.6533 31.7149 70.8772 29.4101 70.7695C29.6743 72.6325 28.1074 72.5746 27.3826 73.8465C26.5334 75.3468 26.3664 77.2251 25.3538 78.4614C24.552 79.4447 23.1522 79.651 22.3136 80.5124C20.1913 82.6893 18.9466 86.4622 16.5625 87.1844Z" fill="#F4D06F"/>
<path fill-rule="evenodd" clip-rule="evenodd" d="M10.1389 52.3157H10.8159C10.9735 53.4108 10.3321 53.2938 9.7998 53.3426C9.86501 52.9257 10.1401 52.8241 10.1389 52.3157Z" fill="#F4D06F"/>
<path fill-rule="evenodd" clip-rule="evenodd" d="M5.40674 53.3367C5.54427 52.0587 6.71921 53.3062 6.42281 54.3616C5.97702 54.1798 5.89046 53.4596 5.40674 53.3367Z" fill="#F4D06F"/>
<path fill-rule="evenodd" clip-rule="evenodd" d="M12.1669 53.3367C12.7721 53.4017 12.8776 52.7099 13.5183 52.8288C13.2388 54.2784 13.992 54.1575 13.8558 55.3927C13.555 55.7909 13.0943 55.9443 12.5045 55.9007C12.2214 55.3054 12.0627 54.5262 12.1669 53.3367Z" fill="#F4D06F"/>
<path fill-rule="evenodd" clip-rule="evenodd" d="M14.871 52.8237C15.7127 53.0268 14.89 54.8117 14.1941 54.3617C14.008 53.23 14.8402 53.6363 14.871 52.8237Z" fill="#F4D06F"/>
<path fill-rule="evenodd" clip-rule="evenodd" d="M16.8983 53.3367C17.7427 53.998 16.5429 55.8224 15.5469 55.3877C15.5789 54.0701 16.8651 54.6522 16.8983 53.3367Z" fill="#F4D06F"/>
<path fill-rule="evenodd" clip-rule="evenodd" d="M12.1669 55.3876C11.7418 56.7925 10.7268 57.3065 9.79825 57.9515C10.3738 56.0397 9.5993 57.1389 9.46191 55.3876C10.786 55.8945 11.4255 54.2549 12.1669 55.3876Z" fill="#F4D06F"/>
<path fill-rule="evenodd" clip-rule="evenodd" d="M90.9135 91.7993C88.398 88.4369 87.1236 83.1829 83.4782 81.5393C83.5303 80.2644 82.9465 79.9516 82.802 78.9753C77.8278 74.5625 75.3502 66.3495 68.9453 64.1034C69.2118 61.9895 67.3263 63.1394 67.5928 61.0255C65.2514 60.4759 63.2369 59.4306 61.8476 57.4355C60.7308 59.2234 59.2291 57.471 57.7913 57.4355C54.7357 57.3603 51.3864 58.0673 49.0047 59.4875C54.0701 60.2717 60.1161 56.5832 63.8752 61.0255C63.0462 63.1414 59.1379 61.5019 58.13 60.5175C56.2351 61.0011 52.8953 61.6573 51.371 61.0255C50.0825 61.8005 49.0379 63.3619 47.6522 63.5904C47.0601 63.692 46.912 62.8479 46.3009 63.0825C39.7753 65.5337 34.4849 72.734 28.0504 75.9014C28.0089 73.3059 30.2059 72.8661 31.4293 71.7984C32.9535 70.4677 33.85 68.5477 36.1607 68.2085C38.4358 62.1134 46.6231 62.7524 48.6649 57.9485C52.7224 56.8168 56.9765 54.393 61.1714 55.8975C61.4888 56.0113 61.6949 56.8686 61.8465 56.9235C62.0715 57.0037 62.4197 56.1667 62.8602 56.4095C65.0808 57.6366 66.3895 60.8446 68.6066 60.0005C70.1462 61.958 72.1596 63.8414 74.0143 65.6424C77.7935 69.3106 81.5537 75.5235 85.5023 79.4883C85.4135 80.9887 86.2661 81.0639 86.1773 82.5653C86.259 83.8859 86.7589 81.8613 87.5299 82.5653V84.6193C89.5302 85.6931 90.6837 88.0458 90.9135 91.7993Z" fill="#F4D06F"/>
<path fill-rule="evenodd" clip-rule="evenodd" d="M76.3813 63.5917C75.8365 63.4464 75.7998 64.0762 75.3663 64.1047C73.7083 61.6565 70.4703 61.6209 69.2836 58.4637C67.6256 59.1941 65.6844 57.0415 63.876 56.4107C66.1333 54.379 71.4119 58.0137 73.0012 60.5147C74.7647 60.5756 76.1042 61.2796 76.3813 63.5917Z" fill="#F4D06F"/>
<path fill-rule="evenodd" clip-rule="evenodd" d="M7.77201 55.9006H8.787C8.40801 56.6391 8.4222 57.1521 9.12452 57.4386C8.5134 59.2 7.3942 57.8733 8.44826 60.0036C7.41433 59.6318 7.45462 60.8884 6.42188 60.5166C7.15617 59.4103 7.59673 57.8561 7.77201 55.9006Z" fill="#F4D06F"/>
<path fill-rule="evenodd" clip-rule="evenodd" d="M6.75949 57.4386C6.44446 59.0122 5.70662 59.9447 5.40699 61.5416C3.80458 60.8397 5.58581 57.2568 6.75949 57.4386Z" fill="#F4D06F"/>
<path fill-rule="evenodd" clip-rule="evenodd" d="M91.9273 65.1325V65.6455C89.7576 63.6382 86.9886 62.5401 85.5059 59.4906C89.0671 59.2153 90.3463 62.4019 91.9273 65.1325Z" fill="#F4D06F"/>
<path fill-rule="evenodd" clip-rule="evenodd" d="M64.2137 61.5417H65.5673C65.8314 63.5165 63.9484 63.5165 64.2137 61.5417Z" fill="#F4D06F"/>
<path fill-rule="evenodd" clip-rule="evenodd" d="M34.8105 76.4146C34.9195 75.2108 35.3458 74.4845 35.1481 72.8246C36.0363 72.0038 36.8239 71.699 37.8531 70.7736C39.5917 69.2102 42.2126 66.5264 44.9496 65.1326C46.2879 64.45 47.7825 64.5536 49.006 64.1066C51.6897 63.1264 53.3501 61.7509 56.7799 62.0557C58.9579 62.2477 61.1762 64.0782 63.5389 63.0806C64.5539 63.7623 65.5345 64.4967 66.2428 65.6456C66.8408 65.1946 67.2293 64.0203 67.9328 65.1326C74.4253 68.6129 77.9061 76.6655 82.127 83.5945C81.0967 89.1816 86.1621 92.4323 85.5071 97.4414C84.0599 97.5867 84.0125 95.6048 83.8171 93.8504C82.4172 91.3606 81.9826 87.4039 80.4382 85.1325C80.4074 83.7337 80.9996 84.1004 80.4382 83.0815C77.6017 78.495 74.263 74.6724 71.6504 69.7476C65.178 65.7706 55.0082 60.3135 48.6673 67.1836C47.143 66.5243 44.9141 67.9963 43.937 69.7476C39.6083 70.0198 38.0663 74.517 34.8105 76.4146Z" fill="#F4D06F"/>
<path fill-rule="evenodd" clip-rule="evenodd" d="M65.9051 62.0556C66.6891 62.2313 67.4885 62.3868 67.2564 64.1066C66.4712 63.9288 65.673 63.7744 65.9051 62.0556Z" fill="#F4D06F"/>
<path fill-rule="evenodd" clip-rule="evenodd" d="M89.9002 80.5163C87.7174 81.329 86.2287 76.9254 85.1628 74.3634C83.3212 73.7397 81.4121 73.2186 81.1077 70.2604C79.5491 70.2604 78.244 66.2824 76.0376 65.6455V64.1065C76.3396 63.7083 76.8015 63.5549 77.3901 63.5935C81.1444 69.8714 86.828 73.2125 89.9002 80.5163Z" fill="#F4D06F"/>
<path fill-rule="evenodd" clip-rule="evenodd" d="M5.74428 65.6456V66.6706C5.47071 66.3151 4.81818 65.8732 4.73054 66.6706C3.52612 66.2429 5.55716 63.9614 5.74428 65.6456Z" fill="#F4D06F"/>
<path fill-rule="evenodd" clip-rule="evenodd" d="M78.4087 86.6704H77.3949C75.0843 80.2899 71.6675 76.8554 68.2696 71.2855C65.3976 70.8416 63.2516 68.2725 60.4968 67.6966C59.8253 67.5564 59.1443 68.2461 58.4693 68.2045C55.724 68.0531 52.9325 66.57 50.019 67.6966C50.7983 65.541 53.0912 65.2291 54.4117 65.1326C55.0975 65.0818 55.5594 66.0265 56.4405 66.1566C57.4898 66.314 58.6457 65.5145 59.483 65.6486C65.4592 66.5781 70.598 71.1128 73.6773 75.9086C73.868 76.9752 74.6425 77.5655 74.016 78.4726C74.7988 78.3101 75.3188 78.5559 75.7049 78.9856C76.4214 81.5719 79.0471 83.6971 78.4087 86.6704Z" fill="#F4D06F"/>
<path fill-rule="evenodd" clip-rule="evenodd" d="M70.2979 117.441C70.6449 115.063 71.0464 112.768 72.3267 111.801C71.853 106.564 72.541 99.4264 71.6504 93.8504C71.1115 90.485 69.4997 88.3497 69.2817 85.1325C67.3702 82.0484 65.0087 79.6531 63.5366 75.9016C61.0234 75.611 60.0605 72.9719 57.7902 72.3116C57.5272 72.7596 57.918 74.582 56.4388 74.3636C55.5683 73.0918 56.6674 72.5351 57.1139 71.7986C55.9509 70.1611 54.4515 71.8514 52.7212 70.7736V69.2346C55.0153 68.745 59.3535 69.3606 60.1576 72.8246C60.5485 72.3949 61.0625 72.147 61.8465 72.3167C70.7764 78.7805 75.2946 94.0455 73.6756 112.319C71.5734 112.539 72.5564 117.448 70.2979 117.441Z" fill="#F4D06F"/>
<path fill-rule="evenodd" clip-rule="evenodd" d="M59.145 68.7216C60.9428 68.7551 62.8863 69.7476 64.8902 71.2855C67.3216 73.1537 69.9189 75.4403 71.6492 78.4655C72.1928 79.4153 72.5872 81.3464 73.3392 82.5685C74.1682 83.9175 75.368 85.9827 75.7079 88.2094C75.9199 89.6123 75.3218 90.8415 75.3692 92.3124C75.3905 92.9717 75.9696 93.1474 76.0454 93.8504C76.1082 94.4284 75.7469 95.5773 75.7079 95.3904C75.9305 96.457 76.91 97.4464 77.0604 98.4653C77.1788 99.2404 76.8744 100.294 77.0604 101.031C77.2463 101.769 77.7804 102.113 78.0742 103.082C78.2719 103.737 78.2175 104.967 78.4117 105.646C79.4658 109.328 81.093 113.62 80.7804 118.98C79.0572 115.526 78.9411 110.94 77.7378 106.672C77.1918 104.734 75.8121 103.156 75.3692 101.031C75.066 99.5584 75.5137 97.9513 75.3692 96.4154C74.6586 88.7834 72.1205 83.629 69.2864 77.9525C68.2205 76.8351 66.7994 76.2662 66.5826 73.8505C64.0849 72.8763 60.8564 71.6167 59.145 68.7216Z" fill="#F4D06F"/>
<path fill-rule="evenodd" clip-rule="evenodd" d="M90.914 76.4144C89.0297 75.3417 88.5074 72.2017 86.52 71.2854C86.6017 70.3834 87.1004 70.1172 87.8714 70.2605C88.3167 73.1739 91.0964 72.5481 90.914 76.4144Z" fill="#F4D06F"/>
<path fill-rule="evenodd" clip-rule="evenodd" d="M53.0615 71.7985C53.3504 73.7378 51.5467 73.6149 51.0327 72.8246C51.0706 71.5151 52.1649 71.8057 53.0615 71.7985Z" fill="#F4D06F"/>
<path fill-rule="evenodd" clip-rule="evenodd" d="M54.4119 71.7985C54.8572 71.9803 54.9448 72.7015 55.4257 72.8245C55.3771 73.9419 54.5753 73.9256 53.7368 73.8505C53.4905 72.4506 54.4084 72.8173 54.4119 71.7985Z" fill="#F4D06F"/>
<path fill-rule="evenodd" clip-rule="evenodd" d="M46.9763 72.8245C46.9325 74.4661 46.2101 75.0796 44.9487 74.8755C44.7249 72.8245 45.8429 72.8143 46.9763 72.8245Z" fill="#F4D06F"/>
<path fill-rule="evenodd" clip-rule="evenodd" d="M2.36447 73.3365H3.71699C3.57842 74.5728 4.3352 74.454 4.05451 75.9015C3.33087 76.3079 2.16666 77.148 1.68581 76.4145C1.63252 74.9599 2.83229 75.4129 2.36447 73.3365Z" fill="#F4D06F"/>
<path fill-rule="evenodd" clip-rule="evenodd" d="M34.8106 73.8515C33.7151 76.1189 31.7195 77.023 29.7417 77.9535C30.2071 74.9761 33.2734 73.5255 34.8106 73.8515Z" fill="#F4D06F"/>
<path fill-rule="evenodd" clip-rule="evenodd" d="M8.44834 74.8756C8.20555 76.443 8.79417 76.7448 8.78707 77.9526C7.40732 78.9349 5.49463 79.1117 4.73192 81.0306C3.6376 81.6645 4.47372 79.3707 3.37939 80.0046C3.62455 78.9623 4.39555 77.9109 5.06825 78.9786C6.02282 77.3492 6.62447 75.1865 8.44834 74.8756Z" fill="#F4D06F"/>
<path fill-rule="evenodd" clip-rule="evenodd" d="M57.7919 74.8756H58.4693C63.1605 76.3079 63.8722 81.1312 67.9321 85.1356C68.7611 88.8292 69.4931 92.6823 70.636 95.9035C69.891 102.208 72.5984 111.815 67.5934 115.903C67.6206 112.951 70.2167 109.689 69.962 104.621C67.3778 106.17 68.3146 113.059 65.2307 113.852C65.3941 115.466 64.7498 115.857 64.5544 116.93C61.0523 118.962 59.8704 124.522 55.769 125.647C56.167 123.495 57.8487 123.167 59.1491 121.545C60.2482 120.173 61.0606 118.032 62.1893 116.416C63.3547 114.749 65.0163 113.761 65.9081 111.801C66.2847 110.97 66.3629 108.909 66.9219 107.185C67.5851 105.141 68.7837 103.905 68.9495 101.031C69.2278 96.1889 66.4932 87.0758 64.8943 83.5946C61.5261 83.0633 61.0748 78.109 57.7954 77.4396L57.7919 74.8756Z" fill="#F4D06F"/>
<path fill-rule="evenodd" clip-rule="evenodd" d="M13.1812 75.9015C14.2826 75.7685 14.8073 76.511 14.8712 77.9525C12.2977 77.8946 10.8635 84.1695 8.78735 81.5425C7.77475 81.8808 9.11067 82.6386 8.78735 83.5945C8.39534 83.5112 8.18569 83.7073 8.11107 84.1024C7.21454 83.9267 6.97058 82.7564 6.75977 81.5384C8.88445 80.7258 10.3127 77.3918 12.1674 76.4105C12.8792 76.0377 13.1847 77.9413 13.1812 75.9015Z" fill="#F4D06F"/>
<path fill-rule="evenodd" clip-rule="evenodd" d="M34.8089 76.4144C35.0469 76.9008 35.162 77.425 35.1464 77.9524C31.6337 80.492 28.494 86.3169 25.0073 87.1844C24.3299 88.5487 24.0788 90.561 22.3047 90.2603C23.2581 86.6155 25.7736 85.0328 28.0511 82.5684C30.1236 80.3234 31.5745 77.3978 34.8089 76.4144Z" fill="#F4D06F"/>
<path fill-rule="evenodd" clip-rule="evenodd" d="M29.4027 77.4394C29.5401 79.0495 28.087 80.8679 27.3752 79.4914C26.4277 81.5678 24.6512 84.788 22.9825 84.1064C22.1109 84.2303 23.4456 84.9891 22.9825 86.1584H21.2925C21.3754 83.38 23.3212 83.4247 23.6611 81.0304C25.9836 80.7135 26.9275 75.8547 29.4027 77.4394Z" fill="#F4D06F"/>
<path fill-rule="evenodd" clip-rule="evenodd" d="M52.3853 81.5424C51.7457 81.3148 50.3481 82.2403 50.6952 80.5164C51.5195 80.1852 52.4326 79.4822 52.3853 81.5424Z" fill="#F4D06F"/>
<path fill-rule="evenodd" clip-rule="evenodd" d="M3.37925 81.0304C3.49768 82.9158 2.14875 82.5806 1.35169 83.0814C1.76858 81.4225 0.257378 82.6883 0.675446 81.0304C2.02084 80.6576 2.03385 80.6576 3.37925 81.0304Z" fill="#F4D06F"/>
<path fill-rule="evenodd" clip-rule="evenodd" d="M89.9004 81.0305C90.8479 81.4673 91.4176 82.4872 91.2517 84.6205C90.3848 84.0922 89.1175 82.473 89.9004 81.0305Z" fill="#F4D06F"/>
<path fill-rule="evenodd" clip-rule="evenodd" d="M5.7453 82.5684C6.74368 82.5531 6.88938 84.9434 6.42157 85.6453C5.19106 85.9724 5.09274 84.5838 5.06787 83.0814C5.46225 83.1647 5.66713 82.9686 5.7453 82.5684Z" fill="#F4D06F"/>
<path fill-rule="evenodd" clip-rule="evenodd" d="M16.2204 86.1585V87.6965C14.6974 87.9464 14.2071 90.744 12.8416 89.7485C11.919 90.2107 13.8696 90.8954 12.8416 91.7995C12.0706 91.9437 11.5708 91.6766 11.4902 90.7745C10.8412 92.2048 10.1638 94.782 7.77149 94.8775C7.91124 93.6412 7.15564 93.76 7.43513 92.3125C11.1752 91.4917 12.69 87.2962 16.2204 86.1585Z" fill="#F4D06F"/>
<path fill-rule="evenodd" clip-rule="evenodd" d="M17.5726 90.7743C16.7021 90.8972 18.0369 91.6571 17.5726 92.8263C15.031 92.9797 13.4713 97.0928 11.1524 95.9033C11.0162 93.5486 12.1496 94.926 12.8412 94.3643C13.9817 93.4389 14.7148 91.4915 15.8838 90.2603C16.7069 89.3948 18.0772 88.9844 18.9251 88.2093C19.7423 87.4637 20.1936 84.857 21.2938 86.6703C20.6294 88.5862 18.8221 91.4559 17.5726 90.7743Z" fill="#F4D06F"/>
<path fill-rule="evenodd" clip-rule="evenodd" d="M78.4087 86.6703H79.0849C81.244 90.0612 82.0209 95.5508 83.1401 100.518C84.1065 101.465 85.3501 104.082 84.8314 105.646C81.5614 101.035 80.4742 93.1077 78.4087 86.6703Z" fill="#F4D06F"/>
<path fill-rule="evenodd" clip-rule="evenodd" d="M5.06756 88.7235C6.14649 88.2836 6.11215 89.5301 6.7588 89.7485C6.34547 92.158 3.63097 93.3699 2.02145 92.3124C1.69339 92.3267 1.75973 92.9392 1.68393 93.3385C0.950828 93.4258 1.53114 91.5201 1.34638 90.7745C2.38623 90.3925 1.99659 92.1824 3.03525 91.7994C3.41661 91.3362 3.01511 90.6515 3.7115 89.7485C4.31551 89.6316 5.40984 90.2655 5.06756 88.7235Z" fill="#F4D06F"/>
<path fill-rule="evenodd" clip-rule="evenodd" d="M77.0572 88.7233C77.4492 88.639 77.6588 88.8361 77.7323 89.2313C79.3086 95.5569 80.1376 103.017 82.8023 107.694C82.1687 110.594 84.9022 112.127 84.1549 114.873C81.3054 113.023 81.3125 106.901 80.0973 102.565C78.8147 97.9583 77.0465 94.9494 77.0572 88.7233Z" fill="#F4D06F"/>
<path fill-rule="evenodd" clip-rule="evenodd" d="M18.9312 95.3873C19.0745 92.4414 20.9445 88.6879 22.3112 90.7714C20.9137 91.9111 20.6674 94.7849 18.9312 95.3873Z" fill="#F4D06F"/>
<path fill-rule="evenodd" clip-rule="evenodd" d="M30.7542 90.2605C31.3179 91.2764 30.7234 90.9137 30.7542 92.3125C30.0436 92.5299 29.8588 91.962 29.4016 91.7995C29.301 90.4484 29.8707 90.1163 30.7542 90.2605Z" fill="#F4D06F"/>
<path fill-rule="evenodd" clip-rule="evenodd" d="M25.0083 91.2873C25.3198 93.4673 24.1982 93.4764 22.9819 93.3383C23.4699 92.3702 23.7376 91.0659 25.0083 91.2873Z" fill="#F4D06F"/>
<path fill-rule="evenodd" clip-rule="evenodd" d="M29.4019 91.7993V93.3383C27.5069 92.161 28.047 97.229 26.0229 95.3903C26.2811 92.8751 28.0269 92.6191 29.4019 91.7993Z" fill="#F4D06F"/>
<path fill-rule="evenodd" clip-rule="evenodd" d="M52.3859 91.7993C52.8845 96.3828 50.639 101.07 49.0058 104.108C46.6064 104.399 45.6115 106.822 44.2744 108.723C40.8837 109.569 38.5541 113.893 34.8104 115.39C32.9404 116.138 30.6499 115.516 28.7265 116.416C27.0578 117.198 24.0851 121.328 21.2925 119.493C21.5992 116.017 24.3777 116.871 25.6852 116.416C30.5113 114.737 35.2782 112.576 39.2043 109.236C41.721 107.103 43.5188 103.933 46.302 103.082C47.7374 98.9366 50.472 96.7576 51.3721 91.7993H52.3859Z" fill="#F4D06F"/>
<path fill-rule="evenodd" clip-rule="evenodd" d="M6.42154 93.3384C7.32047 94.4101 6.14084 96.6409 5.40654 96.9284C5.38522 95.1842 5.80331 94.1104 6.42154 93.3384Z" fill="#F4D06F"/>
<path fill-rule="evenodd" clip-rule="evenodd" d="M22.9819 93.8504C22.9701 95.5427 22.0202 95.8119 20.9531 95.9034C21.0692 94.3603 22.1102 92.6801 22.9819 93.8504Z" fill="#F4D06F"/>
<path fill-rule="evenodd" clip-rule="evenodd" d="M18.9314 95.3873C18.2208 98.0631 16.1447 98.6807 14.2 99.4893C12.9293 95.5986 17.4072 96.8055 17.2413 94.3613C18.3132 93.9255 18.518 94.8103 18.9314 95.3873Z" fill="#F4D06F"/>
<path fill-rule="evenodd" clip-rule="evenodd" d="M24.6711 94.8794C25.8436 95.1384 25.1851 97.8081 24.6711 98.4673C23.1954 98.5019 24.2802 95.242 24.6711 94.8794Z" fill="#F4D06F"/>
<path fill-rule="evenodd" clip-rule="evenodd" d="M3.71732 95.3874C4.85429 94.8602 4.24371 96.9813 4.39309 97.9514C3.38891 98.0621 3.2016 96.1249 3.71732 95.3874Z" fill="#F4D06F"/>
<path fill-rule="evenodd" clip-rule="evenodd" d="M10.8139 97.4413C9.67814 97.3153 8.90714 98.834 7.43501 99.4923C6.61427 98.0874 10.8566 92.9553 10.8139 97.4413Z" fill="#F4D06F"/>
<path fill-rule="evenodd" clip-rule="evenodd" d="M23.6569 96.4153C23.4201 97.9939 23.4201 97.4006 23.6569 98.9793C21.9811 98.6603 21.8674 100.706 19.9381 100.005C17.6121 103.435 12.3513 106.293 9.12402 105.134C12.574 103.185 16.2241 98.8147 19.9381 98.9793C20.4628 97.038 22.0297 96.6814 23.6569 96.4153Z" fill="#F4D06F"/>
<path fill-rule="evenodd" clip-rule="evenodd" d="M53.0607 98.9793C51.8771 99.4395 52.4819 97.3073 52.7222 96.9283C53.1815 97.0878 53.0039 98.2124 53.0607 98.9793Z" fill="#F4D06F"/>
<path fill-rule="evenodd" clip-rule="evenodd" d="M86.181 97.4413C87.2102 97.9554 86.6133 98.2855 86.181 98.9793C87.119 100.634 88.6078 101.454 88.211 105.134C86.9082 103.515 86.451 100.623 85.5059 98.4653C85.8067 98.2398 86.1099 98.0153 86.181 97.4413Z" fill="#F4D06F"/>
<path fill-rule="evenodd" clip-rule="evenodd" d="M13.8549 100.005C11.9494 101.559 9.6115 102.453 7.09717 103.082C8.36559 100.565 10.9166 99.9921 12.5036 97.9543C13.3646 98.0153 13.8147 98.701 13.8549 100.005Z" fill="#F4D06F"/>
<path fill-rule="evenodd" clip-rule="evenodd" d="M48.3282 98.9803H47.6523V97.9543H48.3282V98.9803Z" fill="#F4D06F"/>
<path fill-rule="evenodd" clip-rule="evenodd" d="M5.40671 98.9795H6.4217C6.71067 100.616 5.88872 100.566 5.74542 101.544C5.01113 101.631 5.59147 99.7251 5.40671 98.9795Z" fill="#F4D06F"/>
<path fill-rule="evenodd" clip-rule="evenodd" d="M4.05471 100.518C3.90888 101.15 3.622 101.572 3.03988 101.545C2.8822 100.45 3.52476 100.568 4.05471 100.518Z" fill="#F4D06F"/>
<path fill-rule="evenodd" clip-rule="evenodd" d="M63.2006 100.518H64.2132C64.4916 103 64.0202 104.812 62.8619 106.672C61.7676 108.43 60.2445 112.982 58.1305 113.339C57.8605 118.099 53.1765 120.492 50.019 122.57C50.7983 119.218 53.4406 118.304 55.088 116.416C56.8313 114.426 57.9659 111.857 59.8253 110.262C60.62 106.512 62.4107 104.278 63.2006 100.518Z" fill="#F4D06F"/>
<path fill-rule="evenodd" clip-rule="evenodd" d="M1.01367 101.031C2.00007 100.277 2.00007 103.323 1.01367 102.569V101.031Z" fill="#F4D06F"/>
<path fill-rule="evenodd" clip-rule="evenodd" d="M6.08167 104.108C7.12746 105.076 7.9435 104.865 8.78677 105.134C8.52266 107.674 6.34697 104.137 6.08167 106.672C5.09154 106.235 6.52225 105.381 6.08167 104.108Z" fill="#F4D06F"/>
<path fill-rule="evenodd" clip-rule="evenodd" d="M23.319 104.621C21.5804 108.519 17.5158 108.472 15.2075 110.262C15.6682 106.949 19.6405 106.504 20.9527 106.159C21.4548 105.204 22.3774 103.344 23.319 104.621Z" fill="#F4D06F"/>
<path fill-rule="evenodd" clip-rule="evenodd" d="M27.3739 104.621C26.8587 106.915 24.7683 106.825 23.6562 108.211C23.8422 105.615 25.7774 103.418 27.3739 104.621Z" fill="#F4D06F"/>
<path fill-rule="evenodd" clip-rule="evenodd" d="M75.03 104.108C75.422 104.024 75.6293 104.221 75.7051 104.621C76.0604 108.851 77.4082 113.433 77.0576 117.954C75.6719 119.208 76.0308 115.297 75.7051 113.339C75.2231 110.433 74.2033 107.488 75.03 104.108Z" fill="#F4D06F"/>
<path fill-rule="evenodd" clip-rule="evenodd" d="M4.73123 104.621C4.8698 105.856 4.11299 105.739 4.39131 107.185C3.42132 107.287 2.67638 107.055 2.36371 106.159C2.26304 104.295 4.1663 105.475 4.73123 104.621Z" fill="#F4D06F"/>
<path fill-rule="evenodd" clip-rule="evenodd" d="M84.8315 106.672H85.8475C85.991 107.744 85.6163 108.03 85.5096 108.723C85.0532 108.39 84.8766 107.627 84.8315 106.672Z" fill="#F4D06F"/>
<path fill-rule="evenodd" clip-rule="evenodd" d="M9.12476 107.185C9.86733 108.318 10.5057 106.677 11.8286 107.185C11.799 107.913 11.7729 108.638 12.1673 108.723C10.2925 110.586 8.13112 110.583 5.40716 110.262C5.35505 108.645 6.77861 109.265 7.09838 108.211C7.8682 108.068 8.36797 108.335 8.44851 109.236C9.07502 109.159 8.65695 107.5 9.12476 107.185Z" fill="#F4D06F"/>
<path fill-rule="evenodd" clip-rule="evenodd" d="M23.3203 107.698C23.4221 109.05 22.6097 109.019 21.9678 109.236C21.8659 107.882 22.4368 107.553 23.3203 107.698Z" fill="#F4D06F"/>
<path fill-rule="evenodd" clip-rule="evenodd" d="M21.2919 108.723C22.1695 109.926 20.8181 112.084 19.6006 111.801C19.2192 109.343 20.8904 109.995 21.2919 108.723Z" fill="#F4D06F"/>
<path fill-rule="evenodd" clip-rule="evenodd" d="M15.5464 110.775C15.9147 113.213 14.4473 112.868 13.1777 112.826C13.4596 110.314 14.5279 112.167 15.5464 110.775Z" fill="#F4D06F"/>
<path fill-rule="evenodd" clip-rule="evenodd" d="M18.5865 110.775C18.7049 112.556 16.9983 112.922 16.5601 112.314C17.1451 111.664 17.4448 110.58 18.5865 110.775Z" fill="#F4D06F"/>
<path fill-rule="evenodd" clip-rule="evenodd" d="M21.9671 110.775C22.6701 111.062 22.6784 111.575 22.3062 112.314H21.6292C21.5367 111.485 21.9493 111.431 21.9671 110.775Z" fill="#F4D06F"/>
<path fill-rule="evenodd" clip-rule="evenodd" d="M12.5039 111.288C12.8995 111.37 12.7882 112.223 12.8415 112.826C12.1451 112.515 10.4929 113.654 10.8138 111.801C11.8762 111.539 12.1948 113.009 12.5039 111.288Z" fill="#F4D06F"/>
<path fill-rule="evenodd" clip-rule="evenodd" d="M9.79926 111.801C10.0361 113.698 9.26631 114.065 8.1104 113.852C7.89486 111.987 8.81034 111.837 9.79926 111.801Z" fill="#F4D06F"/>
<path fill-rule="evenodd" clip-rule="evenodd" d="M6.42132 112.314H7.09827C7.25476 113.409 6.61455 113.291 6.08105 113.34C6.14626 112.925 6.42251 112.828 6.42132 112.314Z" fill="#F4D06F"/>
<path fill-rule="evenodd" clip-rule="evenodd" d="M13.8561 114.365C14.5942 114.271 14.9329 114.784 14.872 115.903C14.1339 115.997 13.7952 115.484 13.8561 114.365Z" fill="#F4D06F"/>
<path fill-rule="evenodd" clip-rule="evenodd" d="M17.237 114.365V116.415C15.934 116.822 15.934 113.961 17.237 114.365Z" fill="#F4D06F"/>
<path fill-rule="evenodd" clip-rule="evenodd" d="M18.5866 114.365H19.6004C19.4819 115.557 19.3825 116.768 18.2491 116.416C18.2052 115.501 18.6636 115.334 18.5866 114.365Z" fill="#F4D06F"/>
<path fill-rule="evenodd" clip-rule="evenodd" d="M10.4765 114.877C11.1795 115.165 11.1878 115.678 10.8144 116.416H10.1374C10.0414 115.588 10.4575 115.534 10.4765 114.877Z" fill="#F4D06F"/>
<path fill-rule="evenodd" clip-rule="evenodd" d="M8.11006 115.39H8.78705C8.94474 116.486 8.30333 116.368 7.771 116.417C7.8362 116.002 8.11124 115.908 8.11006 115.39Z" fill="#F4D06F"/>
<path fill-rule="evenodd" clip-rule="evenodd" d="M32.788 117.441C32.4813 120.566 29.0538 118.955 27.3804 120.006C28.5114 117.51 31.2484 116.255 32.788 117.441Z" fill="#F4D06F"/>
<path fill-rule="evenodd" clip-rule="evenodd" d="M66.5799 116.415C67.7133 118.117 64.7418 121.596 62.8623 122.056C62.9807 118.474 65.9807 119.269 66.5799 116.415Z" fill="#F4D06F"/>
<path fill-rule="evenodd" clip-rule="evenodd" d="M20.6164 117.954C21.1837 120.392 18.6718 120.782 18.9264 118.468C19.74 118.679 19.6607 117.533 20.6164 117.954Z" fill="#F4D06F"/>
<path fill-rule="evenodd" clip-rule="evenodd" d="M41.5698 117.954C41.4182 119.607 41.0534 120.933 39.541 120.519V118.468C40.5749 118.84 40.5358 117.583 41.5698 117.954Z" fill="#F4D06F"/>
<path fill-rule="evenodd" clip-rule="evenodd" d="M14.8709 118.468C15.4636 118.305 15.4731 121.341 14.5318 120.519C14.3896 119.446 14.7642 119.158 14.8709 118.468Z" fill="#F4D06F"/>
<path fill-rule="evenodd" clip-rule="evenodd" d="M69.6213 118.468C69.716 119.809 69.4969 120.675 68.6075 120.519C67.9963 119.64 68.7117 118.502 69.6213 118.468Z" fill="#F4D06F"/>
<path fill-rule="evenodd" clip-rule="evenodd" d="M16.5625 118.98C17.2822 118.74 17.2052 119.714 17.2372 120.519C16.9638 120.418 16.8998 120.004 16.5625 120.006V118.98Z" fill="#F4D06F"/>
<path fill-rule="evenodd" clip-rule="evenodd" d="M38.8654 119.493C39.004 120.729 38.2495 120.611 38.5278 122.057C36.6625 122.439 36.049 123.682 34.4727 122.565C35.2946 120.783 37.7391 119.158 38.8654 119.493Z" fill="#F4D06F"/>
<path fill-rule="evenodd" clip-rule="evenodd" d="M23.994 121.032C24.5861 121.495 25.2967 122.179 24.6702 123.083C23.6185 123.323 23.4622 121.799 23.994 121.032Z" fill="#F4D06F"/>
<path fill-rule="evenodd" clip-rule="evenodd" d="M14.8702 124.108C13.1541 122.3 10.7108 124.863 8.11002 123.083C8.08633 119.825 10.7783 123.083 10.8139 123.083C11.1076 123.084 16.2298 120.312 14.8702 124.108Z" fill="#F4D06F"/>
<path fill-rule="evenodd" clip-rule="evenodd" d="M23.3198 121.545C23.4098 123.658 20.6988 123.35 19.9385 122.57C20.7782 121.793 21.9909 121.581 23.3198 121.545Z" fill="#F4D06F"/>
<path fill-rule="evenodd" clip-rule="evenodd" d="M19.6005 122.57C19.5342 123.334 17.3906 124.629 17.573 122.57C18.3168 123.915 18.6945 120.979 19.6005 122.57Z" fill="#F4D06F"/>
<path fill-rule="evenodd" clip-rule="evenodd" d="M29.7417 125.135C30.2581 123.043 33.0839 122.194 34.1344 122.57C33.4913 124.472 31.1759 126.089 29.7417 125.135Z" fill="#F4D06F"/>
<path fill-rule="evenodd" clip-rule="evenodd" d="M42.584 122.057H43.2599V123.084H42.584V122.057Z" fill="#F4D06F"/>
<path fill-rule="evenodd" clip-rule="evenodd" d="M49.0059 122.057C50.1026 123.427 48.1164 124.434 47.3158 124.622C47.1524 122.663 48.512 123.018 49.0059 122.057Z" fill="#F4D06F"/>
<path fill-rule="evenodd" clip-rule="evenodd" d="M15.8842 122.57C16.2997 122.794 16.5766 123.228 16.5601 124.108C16.1446 123.885 15.8653 123.453 15.8842 122.57Z" fill="#F4D06F"/>
<path fill-rule="evenodd" clip-rule="evenodd" d="M39.5397 123.596V125.647C38.4359 125.755 38.2071 123.242 39.5397 123.596Z" fill="#F4D06F"/>
<path fill-rule="evenodd" clip-rule="evenodd" d="M74.3585 123.596C74.7728 123.82 75.0521 124.253 75.0343 125.135C74.6141 124.911 74.3336 124.478 74.3585 123.596Z" fill="#F4D06F"/>
<path fill-rule="evenodd" clip-rule="evenodd" d="M28.3887 126.675C27.7314 125.686 28.0334 123.536 29.4025 124.11C29.8277 125.592 29.5754 126.447 28.3887 126.675Z" fill="#F4D06F"/>
<path fill-rule="evenodd" clip-rule="evenodd" d="M38.1914 124.622C38.0541 125.612 36.6423 124.667 37.1765 126.673C34.5828 126.673 33.0112 128.216 30.4175 128.212C30.864 125.122 34.9878 124.901 36.5002 125.135C37.2985 124.381 37.1303 124.052 38.1914 124.622Z" fill="#F4D06F"/>
<path fill-rule="evenodd" clip-rule="evenodd" d="M52.0464 125.647C50.9805 125.564 50.9165 127.009 49.6777 126.673C49.7085 125.026 52.0203 122.736 52.0464 125.647Z" fill="#F4D06F"/>
<path fill-rule="evenodd" clip-rule="evenodd" d="M27.3742 124.622C27.4536 128.231 25.8725 125.701 24.6704 125.647C25.2081 124.757 26.1923 124.542 27.3742 124.622Z" fill="#F4D06F"/>
<path fill-rule="evenodd" clip-rule="evenodd" d="M46.6446 124.622C46.5949 125.74 45.7919 125.723 44.9546 125.647C44.9996 124.527 45.8014 124.542 46.6446 124.622Z" fill="#F4D06F"/>
<path fill-rule="evenodd" clip-rule="evenodd" d="M43.2606 126.16C43.8066 126.016 43.8422 126.646 44.2745 126.668C44.4071 127.669 42.7371 127.423 43.2606 126.16Z" fill="#F4D06F"/>
<path fill-rule="evenodd" clip-rule="evenodd" d="M55.0885 126.16C55.2436 127.762 54.3672 127.8 53.3984 127.699C53.7075 126.8 54.0273 125.917 55.0885 126.16Z" fill="#F4D06F"/>
<path fill-rule="evenodd" clip-rule="evenodd" d="M17.2354 127.183C17.3396 126.487 18.0822 126.758 18.5868 126.675C18.7739 127.812 17.9424 127.407 17.9116 128.214C17.5433 128.085 17.6819 127.192 17.2354 127.183Z" fill="#F4D06F"/>
<path fill-rule="evenodd" clip-rule="evenodd" d="M46.6452 129.237H46.3076C46.2899 128.582 45.8754 128.526 45.9701 127.699C47.3783 127.956 47.46 126.201 49.0114 126.673C48.9759 128.68 47.1852 128.015 46.6452 129.237Z" fill="#F4D06F"/>
<path fill-rule="evenodd" clip-rule="evenodd" d="M41.5697 129.237H40.5559C40.2586 127.591 41.4311 128.173 41.5697 127.186C42.4094 127.263 41.6703 128.922 41.5697 129.237Z" fill="#F4D06F"/>
<path fill-rule="evenodd" clip-rule="evenodd" d="M37.5148 129.238H36.5C36.5 128.724 36.775 128.628 36.8391 128.212C37.2184 128.32 37.3654 128.781 37.5148 129.238Z" fill="#F4D06F"/>
<path fill-rule="evenodd" clip-rule="evenodd" d="M56.1023 9.23199C56.1023 11.8671 54.0498 10.5262 53.3985 10.77C51.802 11.3714 50.7704 12.3852 49.3433 12.821C45.8258 13.8998 41.8039 14.5083 38.1917 16.412C33.9624 18.6387 30.2152 22.2815 26.0238 23.0789C24.907 24.9074 22.6509 27.3962 20.9537 26.6679C19.5325 28.4679 18.4335 28.5726 15.8848 29.2329C15.218 30.1024 15.109 31.8172 13.5161 31.2849C13.4924 29.5833 14.3451 29.6727 14.8686 29.2329C19.3359 25.5088 24.5517 22.765 29.7391 20.0009C30.8204 19.0765 32.559 16.9971 33.7942 17.9499C39.3203 12.2917 49.2758 11.2759 56.1023 9.23199Z" fill="#F4D06F"/>
<path fill-rule="evenodd" clip-rule="evenodd" d="M14.8698 35.3866C15.096 31.9612 20.1993 31.9897 21.6288 28.7187H23.3188C30.4592 21.623 41.4012 15.3441 50.356 14.3598C45.8354 17.1025 40.1541 18.9493 35.4867 21.5397C33.311 22.7465 31.2124 23.6852 28.7253 25.6427C28.1734 26.0775 27.8394 27.2 27.374 27.6947C25.9528 29.2012 24.303 29.6035 22.6426 30.7707C20.3474 32.3838 16.7659 34.5963 14.1936 36.9256C12.95 38.0512 12.2335 38.7613 10.8135 39.4896C11.3855 37.3553 13.2662 32.6449 14.8698 35.3866Z" fill="#F4D06F"/>
<path fill-rule="evenodd" clip-rule="evenodd" d="M17.2354 36.4128C17.5397 34.9957 18.5251 34.6066 19.604 34.3618C19.1528 35.5605 18.0916 35.8317 17.2354 36.4128Z" fill="#F4D06F"/>
<path fill-rule="evenodd" clip-rule="evenodd" d="M11.4904 65.1325C17.9331 59.6937 24.8402 54.9609 30.7547 48.7216C34.9946 47.6133 38.7951 43.3082 43.2601 41.5406C45.8289 40.5248 48.1964 40.9768 50.3566 38.4637C57.3714 38.0076 67.7662 35.2729 74.016 40.0037C74.5904 40.1906 74.6519 39.6024 74.6922 38.9767C75.3933 39.2641 75.4028 39.7761 75.0297 40.5146C80.4433 41.3547 87.3113 43.9807 90.2389 50.2596C89.0096 50.7543 88.7585 48.8466 87.8703 48.2076C86.2418 47.0353 84.2841 47.1918 82.4638 46.1566C81.3801 45.54 80.332 43.6231 79.0837 43.0796C78.0273 42.6215 76.4652 42.8531 75.0286 42.5666C71.5846 41.8809 67.8622 40.0057 63.8745 39.4897C61.0321 39.1219 58.1992 40.1875 55.7642 39.4897C50.1552 42.4356 42.964 42.974 38.19 47.1826C37.6132 47.3716 37.5516 46.7824 37.5125 46.1566C36.263 47.6174 34.2651 50.3094 32.7752 49.7456C29.6959 52.1145 26.4366 56.8392 22.9748 56.9265C22.9192 57.5228 23.0483 57.8408 23.3124 57.9515C18.8924 61.5019 14.6537 65.3275 10.807 69.7474C10.0703 69.8409 9.73204 69.3279 9.79205 68.2085C9.22239 69.0526 9.37397 70.9918 8.77944 71.7984C7.35824 72.9484 6.32075 72.1032 5.06062 72.8244C4.95285 74.1836 6.95557 72.3449 6.41433 74.3634C5.76887 74.5818 5.80203 75.8283 4.72429 75.3884C3.83249 73.7783 4.8818 71.833 5.39935 70.7734C5.7665 70.8994 5.62792 71.7893 6.07442 71.7984C6.8087 71.8858 6.22839 69.9801 6.41433 69.2344C8.12451 70.3072 8.70363 66.5699 10.807 66.6705C10.6637 67.7422 11.0439 68.0276 11.1457 68.7215C12.0802 67.6152 10.8165 66.3657 11.4904 65.1325Z" fill="#F4D06F"/>
<path fill-rule="evenodd" clip-rule="evenodd" d="M89.2241 67.1835C87.8515 67.3867 86.8697 66.9966 86.8555 65.1325C88.3762 64.9954 90.9876 67.3227 91.2494 70.7735C90.1858 70.2747 88.6651 68.5325 89.2241 67.1835Z" fill="#F4D06F"/>
<path fill-rule="evenodd" clip-rule="evenodd" d="M6.42188 88.7235C6.48464 88.1404 6.76058 88.438 6.75939 88.7235C7.82529 88.8007 7.41669 86.643 8.1107 86.1585C8.68866 86.1361 8.98593 86.5404 9.1245 87.1845C9.8351 87.0422 8.63538 85.8141 9.46323 85.1325C9.85524 84.1908 11.6685 85.4037 11.1533 83.0815C12.9937 83.31 13.6344 81.7213 14.1946 80.0045C17.0169 79.8409 17.6351 76.3353 19.2636 74.3635C19.8107 74.2183 19.8463 74.8481 20.2786 74.8715C21.9366 72.4202 24.7198 68.9694 26.3613 68.2045C28.4315 63.75 32.3445 61.2612 36.1628 58.4616C39.9811 55.6619 43.8373 52.1563 47.9919 50.7686C48.5213 50.5908 49.1608 50.9952 49.6807 50.7686C50.556 50.3867 51.1505 49.3607 52.0494 49.2296C54.7734 48.8314 58.1191 50.151 61.1759 50.2556C58.0066 53.2127 54.1753 50.8316 51.0356 51.7936C49.8099 52.1695 48.3046 53.4667 46.6418 54.3576C43.3647 56.114 40.1694 56.8159 37.8552 59.9996C37.1778 60.1743 36.7976 59.898 36.8414 58.9736C36.4174 60.0422 36.0124 61.1373 35.4901 62.0516C30.9245 63.8415 28.6897 69.1695 24.336 71.2815C23.7439 71.7477 23.7178 73.0785 23.3223 73.8465C21.2769 75.3133 20.2963 78.176 18.2522 80.0004C16.9304 81.1788 15.7793 82.922 14.8732 84.6164C12.9534 85.295 11.5465 86.7497 10.4794 88.7194C9.76877 88.9358 9.58402 88.3669 9.12687 88.2054C8.43759 88.8677 8.5134 90.6921 7.10049 90.2564C7.11115 89.3848 6.85179 88.9327 6.42188 88.7235Z" fill="#F4D06F"/>
<path fill-rule="evenodd" clip-rule="evenodd" d="M88.5479 55.9006C86.7857 57.0475 84.6989 54.6816 84.1553 52.3106C86.2871 53.8648 89.1863 54.2509 89.9004 57.9516C88.767 58.3091 88.664 57.0901 88.5479 55.9006Z" fill="#F4D06F"/>
<path fill-rule="evenodd" clip-rule="evenodd" d="M4.73155 55.9007C6.07829 53.6527 3.01374 58.7644 4.73155 55.9007V55.9007Z" fill="#F4D06F"/>
<path fill-rule="evenodd" clip-rule="evenodd" d="M5.40567 67.1837C5.30027 68.9046 4.2758 69.2296 3.37807 69.7477C2.74564 68.7715 3.34018 68.4586 3.37807 67.1837C4.07683 69.8269 4.13606 67.5799 5.40567 67.1837Z" fill="#F4D06F"/>
<path fill-rule="evenodd" clip-rule="evenodd" d="M52.3848 69.7476C52.0922 71.9886 50.6248 69.4723 50.0161 70.7736C49.0189 71.2196 50.8001 71.5406 50.3536 72.8246C49.3209 72.4538 49.1231 73.3488 48.3261 73.3325C48.6387 71.3303 49.7923 71.7346 48.6636 69.7436C47.9163 70.1499 47.818 71.5365 47.3123 72.3075C44.8382 69.514 43.4821 77.8947 40.2146 75.3845C39.7562 75.543 39.9339 76.6685 39.8782 77.4355C37.9099 78.5529 37.2822 81.702 34.8069 82.0515C33.0304 85.5053 30.1229 87.2516 28.0491 90.2564C27.6322 90.0329 27.3527 89.6012 27.3717 88.7194C26.6137 88.9348 27.3622 91.4399 26.6966 91.7954C25.6402 92.0311 25.6153 90.7003 25.6816 89.2314C28.8 87.2963 30.7743 83.623 33.7931 81.5385C37.2976 74.8675 46.2641 66.7458 52.3848 69.7476Z" fill="#F4D06F"/>
<path fill-rule="evenodd" clip-rule="evenodd" d="M40.894 76.9275H41.5703C41.4767 77.9809 40.6678 77.9504 40.2178 78.4655C39.4124 78.3131 40.8324 77.4385 40.894 76.9275Z" fill="#F4D06F"/>
<path fill-rule="evenodd" clip-rule="evenodd" d="M42.2451 116.93C42.9557 116.713 43.1405 117.282 43.5976 117.438C44.0559 117.28 43.8771 116.155 43.9363 115.387C46.742 115.227 47.963 111.548 50.019 109.746C50.4253 109.39 50.989 109.657 51.3715 109.233C54.6237 105.628 56.8195 100.192 57.7918 93.3354C57.6663 91.645 57.003 90.7734 56.4405 89.7454C57.1203 85.6363 54.4899 86.5516 54.4117 83.5915C53.424 84.0526 53.3743 84.0526 52.3853 83.5915C52.7134 81.513 53.1528 80.7837 52.7229 78.9755C50.5425 79.4397 49.5643 81.127 50.019 83.0785C49.0846 83.1648 48.8584 82.2912 49.3428 81.5395C48.2307 81.5618 47.6599 82.405 46.3014 82.0474C43.2222 85.9279 39.3198 88.5487 36.4999 92.8153C35.5524 92.6548 36.2275 91.0985 35.4873 89.7373C37.6191 89.5107 38.9219 83.2877 40.5562 85.6343C41.6672 82.6995 44.2833 79.331 46.9765 80.5053C47.1707 78.9816 51.3289 77.5025 53.3979 77.9414C53.8634 78.0429 54.3857 78.946 54.7516 78.9674C55.3319 79.0019 55.5132 77.7656 56.1018 77.9414C58.2573 78.5854 61.2051 81.3566 61.8482 84.0953C62.2733 85.9076 62.7541 89.4071 62.8619 90.7633C63.6282 100.344 58.5273 109.048 55.4255 114.354H54.4117C52.2622 117.761 48.7861 121.302 45.6263 121.534C44.9359 121.855 45.5316 124.124 44.2739 123.585C43.0635 120.226 46.5478 120.893 46.9765 118.457C47.9323 118.88 47.8529 117.735 48.6665 117.943C49.2931 117.866 48.875 116.207 49.3428 115.892C54.1334 112.877 60.389 103.609 61.1731 94.8642C61.8706 87.0605 58.0299 84.6886 55.088 79.4783C54.1156 79.5393 54.5029 81.6654 53.3979 81.5293C57.8048 83.4411 60.6662 86.8543 59.483 95.3772C59.348 96.3402 58.5983 97.5968 58.4693 98.4522C58.2892 99.6265 58.8956 99.9211 58.1305 101.531C57.1523 103.587 55.435 107.558 54.0754 109.736C52.955 111.528 51.8488 112.038 50.019 113.839C47.8872 115.942 45.7199 119.868 42.9214 118.967C42.5542 119.094 42.6928 119.983 42.2451 119.993C41.814 119.265 42.8385 118.861 42.2451 116.93Z" fill="#F4D06F"/>
<path fill-rule="evenodd" clip-rule="evenodd" d="M66.2418 97.9545C64.5209 97.2231 65.5963 100.736 63.8731 100.006C64.0851 97.3013 64.393 94.8308 64.2107 92.3125C63.9548 88.7419 62.1973 85.9128 62.5218 83.5946C65.3263 85.6629 66.2915 90.5247 66.5769 96.4155C67.1241 97.8753 67.7151 100.987 66.9156 104.621C66.7889 105.196 65.8498 105.828 65.5643 106.672C65.1901 107.76 65.4613 108.744 65.2244 109.236C64.7246 110.279 63.7961 110.308 63.198 111.288C62.5159 112.406 61.964 116.672 60.4942 115.39C59.9222 119.439 55.61 121.904 53.3953 125.135C51.1617 121.507 56.201 121.595 56.7766 118.98C57.1686 118.896 57.3782 119.094 57.4517 119.488C58.5318 118.003 58.6881 116.494 60.1567 114.872C60.4753 114.52 61.5779 114.238 61.508 114.364C61.8005 113.866 61.5814 112.618 61.8455 111.8C63.0926 107.928 66.2903 104.225 66.2418 97.9545Z" fill="#F4D06F"/>
<path fill-rule="evenodd" clip-rule="evenodd" d="M88.2144 93.3383C84.9835 92.9411 85.1185 87.4362 83.1431 85.1323C83.5777 83.0783 83.8418 85.2735 84.8343 85.1323C86.3739 88.321 88.8219 92.6922 89.2269 95.9002C88.8337 95.8149 88.6253 96.0119 88.5507 96.4081C87.8993 95.9825 87.6329 94.1682 88.2144 93.3383Z" fill="#F4D06F"/>
<path fill-rule="evenodd" clip-rule="evenodd" d="M3.37851 84.6194C4.13174 84.8429 4.58259 85.5262 4.73103 86.6694C3.19141 86.0436 2.85504 88.8026 1.68848 87.1834C1.92595 86.6965 2.04098 86.1721 2.02602 85.6444C3.4555 87.0331 3.16533 86.2661 3.37851 84.6194Z" fill="#F4D06F"/>
<path fill-rule="evenodd" clip-rule="evenodd" d="M0.337353 87.6965C0.400087 87.2607 0.204772 87.213 0 87.1886C0.4273 85.6079 1.01559 87.7595 0.337353 88.2136C-0.0473347 88.113 0.149152 87.6955 0.337353 87.6965Z" fill="#F4D06F"/>
<path fill-rule="evenodd" clip-rule="evenodd" d="M44.6126 96.4153C42.6383 95.9338 41.583 100.498 39.2037 101.031V99.4922C38.4718 99.4059 39.0509 101.312 38.865 102.056C34.085 105.966 28.6608 110.877 22.9819 111.801C23.3905 108.652 27.1828 107.93 28.3884 107.698C29.5787 106.083 30.6718 104.324 32.7823 104.108C34.9484 101.253 37.5125 100.051 39.8811 97.4413C41.4871 95.6706 44.9951 89.7879 47.3152 88.2093C48.1703 87.6283 49.4174 88.4633 50.019 87.1843V89.7483C48.3444 89.791 46.479 92.9675 45.6263 93.8503C45.3705 94.1164 44.8518 93.5079 44.9489 93.3423C44.5486 94.023 44.3946 95.8129 44.6126 96.4153Z" fill="#F4D06F"/>
<path fill-rule="evenodd" clip-rule="evenodd" d="M26.6994 101.031C25.2107 101.336 25.1254 103.774 23.6569 104.108C23.5136 103.036 23.8938 102.75 23.9944 102.056C20.1086 104.195 16.2158 106.323 12.8416 109.236C12.979 108.001 12.2246 108.119 12.5041 106.672C15.8948 106.989 18.537 100.948 22.3056 102.056C22.5555 100.077 23.1346 101.535 24.3332 101.031C25.4452 100.568 25.5755 98.8413 26.6994 101.031Z" fill="#F4D06F"/>
<path fill-rule="evenodd" clip-rule="evenodd" d="M73.34 113.852C74.7742 115.308 74.3621 119.824 72.3262 120.006C72.8959 122.048 71.5848 123.889 69.9575 124.108C70.8363 120.31 73.9546 119.915 73.34 113.852Z" fill="#F4D06F"/>
<path fill-rule="evenodd" clip-rule="evenodd" d="M69.6212 124.108C69.3828 124.595 69.2673 125.119 69.2824 125.647C68.7483 125.69 67.9927 125.401 67.9311 126.155C67.2383 125.568 68.8111 124.117 69.6212 124.108Z" fill="#F4D06F"/>
<path fill-rule="evenodd" clip-rule="evenodd" d="M61.8481 22.5658C61.9938 25.1765 60.6342 23.4212 59.8205 23.5908C56.8597 24.2115 52.2988 25.7525 49.0052 26.1558C48.329 26.2381 48.0471 25.5463 47.6527 25.6428C43.1215 26.7866 38.4611 30.6529 34.4723 33.3358C30.8459 35.7738 26.2258 38.483 22.3056 41.0277C21.8473 41.5356 21.6294 42.396 21.2918 43.0797C17.4629 43.9381 15.3998 47.4722 12.5041 49.7456C11.5484 50.1703 11.6277 49.0234 10.8141 49.2377C10.197 49.8472 11.5898 49.6816 10.8141 51.2897H9.12402C9.05415 50.412 9.69961 49.961 9.12402 49.7497C9.76356 48.6028 11.4643 47.1349 12.5041 48.2117C13.5167 47.8755 12.182 47.1166 12.5041 46.1607C13.5345 46.1861 14.225 45.6955 14.5317 44.6217C15.0185 44.7375 14.6501 46.1526 15.2079 46.1607C15.7101 45.726 15.6971 44.51 15.8842 43.5968C16.6339 43.3144 16.365 44.576 16.898 44.6217C17.3848 43.995 17.4096 42.6652 17.9118 42.0578C22.5046 38.9422 26.5325 34.9672 31.4309 32.3138C37.5302 30.9638 42.791 24.1597 49.0052 24.1079C49.5808 24.1079 49.6424 24.3669 49.6803 25.1339C52.1295 22.1747 57.7776 21.3468 61.8481 22.5658Z" fill="#F4D06F"/>
<path fill-rule="evenodd" clip-rule="evenodd" d="M79.0841 51.2857C78.7549 51.2989 78.8211 51.9124 78.7453 52.3107C75.9501 51.2507 73.3354 49.8704 70.9726 48.2077C67.4397 48.4627 64.1722 45.857 60.1585 46.1567C54.5139 46.5752 49.1714 50.6112 44.6117 50.2597C39.5416 54.3616 33.9255 57.6377 29.0638 62.0556C26.9913 65.0645 24.6818 67.7118 21.9661 69.7475C20.7451 70.801 20.404 73.1902 18.5861 73.3365C17.4752 74.5555 17.0369 76.7985 15.2072 76.9275C15.444 75.548 14.5084 75.936 14.1934 75.3885C14.9442 74.7952 15.9699 71.957 16.8972 73.3365C17.4207 71.3211 18.3468 69.5088 19.5998 68.2085C20.1505 67.6397 21.0897 67.7067 21.6286 67.1836C24.426 64.454 27.6142 61.1434 30.748 57.9516C33.5525 55.1022 37.6585 52.4072 41.5633 50.2597C47.6507 46.9074 55.7172 43.7583 64.2065 44.6177C69.3489 45.1398 74.252 47.6307 78.4019 50.2597C78.9834 50.0707 79.0462 50.6599 79.0841 51.2857Z" fill="#F4D06F"/>
<path fill-rule="evenodd" clip-rule="evenodd" d="M31.0918 90.7745C30.47 89.8744 31.0515 88.9927 32.1056 89.2355C33.0684 84.9497 36.9436 82.3389 40.5558 79.4915C41.4464 78.7886 42.4317 77.0383 43.2596 76.4146C43.6149 76.1423 44.2497 76.6878 44.6121 76.4146C44.849 76.2368 45.3227 74.6653 46.6385 75.3886C47.3278 75.2382 47.3017 74.0009 47.991 73.8506C50.3076 74.9944 52.7864 72.3624 53.7362 75.3886C54.4302 73.8272 56.3796 74.6704 57.4538 75.3886C56.9671 78.0369 51.9301 76.0296 50.0186 75.8965C47.2946 77.5828 44.5564 79.2335 41.5695 80.5114C40.3213 82.3806 39.1535 84.3716 37.1757 85.1274C36.4734 85.2595 37.0833 87.3806 36.4994 87.6914C34.1178 87.604 32.9298 91.7162 31.0918 90.7745Z" fill="#F4D06F"/>
<path fill-rule="evenodd" clip-rule="evenodd" d="M46.3014 83.5944C46.9788 83.4197 47.3589 83.696 47.3151 84.6204C48.1702 84.0597 49.7418 82.9951 51.3715 83.5944C51.9186 83.7976 51.8831 84.7809 52.3852 85.1324C53.8953 86.1929 56.4748 86.3819 55.0879 89.2354C53.8846 89.3519 53.3213 88.4969 53.3979 86.6704C51.6877 88.1261 51.6415 85.5265 49.3427 86.1625C46.1663 87.0351 42.5588 91.203 40.8937 94.3684C39.6821 94.2374 39.6549 95.9084 38.525 95.9074C37.3881 98.6248 34.6546 98.9214 33.4561 101.548C32.5335 101.921 32.7751 100.533 32.1036 100.522C32.3712 102.296 31.7281 102.687 31.4285 103.599C29.7847 103.156 29.6923 105.067 28.0496 104.625C27.3118 101.984 29.0539 100.011 31.0898 100.009C35.7087 95.882 40.427 90.7236 44.9465 85.1365C45.3385 85.5662 45.8537 85.813 46.6365 85.6495C46.2125 84.9597 45.6227 84.6377 46.3014 83.5944Z" fill="#F4D06F"/>
<path fill-rule="evenodd" clip-rule="evenodd" d="M30.4194 96.4155C30.4833 97.4089 29.3997 100.072 28.3906 98.9794C27.9714 100.565 26.7586 100.958 26.022 99.4874C26.6319 98.7052 27.0571 97.6395 28.3906 97.9494C29.5833 94.2923 32.8189 93.7265 34.4746 90.7694C37.0943 93.6341 32.4316 95.7938 31.0945 97.4364C30.5177 97.6294 30.4549 97.0412 30.4194 96.4155Z" fill="#F4D06F"/>
<path fill-rule="evenodd" clip-rule="evenodd" d="M51.033 104.621C51.2178 104.682 51.7176 99.2068 53.7368 98.9793V91.7993C53.0262 91.1746 52.755 89.8692 51.7093 89.7483C50.4634 90.1222 51.8526 91.2914 51.033 92.3123C47.1768 95.0094 46.4556 102.463 41.9077 104.108C41.3476 105.649 40.0756 106.114 39.2039 107.185C38.6283 107.373 38.5667 106.779 38.5277 106.159C38.594 109.154 34.9237 109.566 33.4587 111.801C32.9719 111.685 33.3403 110.27 32.7825 110.262C32.6427 113.981 23.5636 115.175 20.2783 116.416C20.0888 113.394 21.7089 113.119 23.6572 113.339C26.7364 112.541 28.8173 110.229 32.1062 109.749C34.7248 107.397 37.219 104.856 40.2177 103.082C41.2836 100.764 42.8161 99.1611 44.6128 97.9543C46.2495 95.4817 47.3367 92.1782 50.0192 91.2873C50.493 90.6321 50.2265 88.8646 50.6955 88.2094C52.9256 88.7579 54.804 89.8347 56.102 91.7993C56.2204 99.1611 54.5185 103.756 51.3717 106.159C50.6067 106.447 51.7803 106.96 51.033 107.698C49.3205 107.698 48.5459 110.567 47.3154 111.801C46.0493 113.076 43.5066 112.685 42.9215 115.39C41.9741 114.92 41.2244 116.434 40.2177 116.93C39.3626 117.35 38.2695 117.032 37.5139 117.438C34.9782 118.831 33.2396 120.978 29.7411 122.054C28.4312 122.46 25.5793 124.781 25.346 121.029C28.9736 121.131 33.075 120.971 34.4725 116.413C38.954 116.033 40.7495 111.58 44.6128 110.259C46.3158 107.89 48.6715 106.507 50.3568 104.105C50.75 104.022 50.9584 104.225 51.033 104.621Z" fill="#F4D06F"/>
</svg>
