<svg width="78" height="36" viewBox="0 0 78 36" fill="none" xmlns="http://www.w3.org/2000/svg">
<path d="M53.1481 6.10352e-05H64.5624L50.9557 34.9148L45.5571 19.0716L53.1481 6.10352e-05Z" fill="#FF8810"/>
<path d="M12.2079 24.5516L0 0.000106812H11.7739L24.226 25.3926V36H12.2079V24.5516Z" fill="#FF8810"/>
<path fill-rule="evenodd" clip-rule="evenodd" d="M36.4397 0H24.8018L29.676 13.4753L36.4397 0ZM30.528 15.8306L37.8236 35.9998H49.4889L37.6231 1.69494L30.528 15.8306Z" fill="#FF8810"/>
<path fill-rule="evenodd" clip-rule="evenodd" d="M63.8944 1.46175L63.3117 0H57.4657L56.4346 12.4657L58.0621 16.6789L63.8944 1.46175ZM59.0394 19.2088L61.2499 24.9313L64.0171 32.0662L65.5363 35.9998H77.6628L64.887 3.95172L59.0394 19.2088Z" fill="#FF8810"/>
<path d="M19.1538 11.042L24.9865 22.8701L36.5976 0.000595093H25.0679L19.1538 11.042Z" fill="#FF8810"/>
</svg>
