<svg width="97" height="135" viewBox="0 0 97 135" fill="none" xmlns="http://www.w3.org/2000/svg">
<path d="M50.7218 133.907C50.7218 132.904 52.6437 132.482 53.2153 133.36C53.5612 133.892 53.1418 134.327 52.283 134.327C51.4244 134.327 50.7217 134.138 50.7217 133.907H50.7218ZM39.7059 131.894C39.7059 131.078 40.1566 130.676 40.7074 130.999C41.2582 131.322 41.7088 131.989 41.7088 132.481C41.7088 132.973 41.2582 133.376 40.7074 133.376C40.1566 133.376 39.7059 132.709 39.7059 131.894ZM46.716 132.527C46.716 131.612 49.1515 130.505 51.054 130.554C51.6975 130.571 51.3492 131.212 50.28 131.98C48.0733 133.564 46.7161 133.773 46.7161 132.527H46.716ZM60.7359 130.668C60.7359 130.224 62.5251 129.095 64.7119 128.159C66.8987 127.223 69.4471 125.661 70.375 124.687C72.4157 122.546 73.4207 122.433 73.4207 124.344C73.4207 125.128 72.8425 125.77 72.1357 125.77C71.429 125.77 68.8474 127.053 66.3992 128.622C61.7052 131.63 60.7359 131.98 60.7359 130.668V130.668ZM65.7431 130.523C65.7431 130.001 66.4457 129.573 67.3044 129.573C68.1631 129.573 68.5871 130.001 68.2467 130.523C67.9063 131.046 67.2037 131.474 66.6854 131.474C66.1671 131.474 65.7431 131.046 65.7431 130.523ZM73.3187 130.623C73.0139 130.154 73.438 129.526 74.261 129.226C75.1699 128.895 75.7574 129.226 75.7574 130.077C75.7574 131.615 74.1925 131.965 73.3187 130.623H73.3187ZM41.3369 129.771C41.0677 129.357 42.393 129.19 44.2821 129.4C46.1712 129.609 47.7168 129.947 47.7168 130.152C47.7168 130.867 41.8215 130.515 41.3368 129.771H41.3369ZM56.1702 129.067C57.2393 128.299 58.5282 127.671 59.0346 127.671C60.3031 127.671 69.7485 121.797 69.7485 121.008C69.7485 120.657 70.8751 119.882 72.2521 119.287C73.629 118.691 74.7557 118.405 74.7557 118.652C74.7557 119.464 70.4051 123.867 69.6027 123.867C69.1704 123.867 66.7072 125.138 64.129 126.69C61.5508 128.242 59.0878 129.305 58.6555 129.051C58.2234 128.798 57.5867 129.025 57.2407 129.557C56.8947 130.088 56.075 130.509 55.419 130.493C54.763 130.477 55.101 129.834 56.1702 129.067H56.1702ZM37.4526 128.917C36.4887 128.678 35.7001 128.126 35.7001 127.69C35.7001 127.254 36.6014 127.122 37.7029 127.395C38.8045 127.669 39.7058 128.27 39.7058 128.732C39.7058 129.194 39.5931 129.523 39.4555 129.462C39.3178 129.402 38.4165 129.156 37.4526 128.917ZM49.7198 128.621C49.7198 128.099 50.1705 127.671 50.7213 127.671C51.2721 127.671 51.7227 128.099 51.7227 128.621C51.7227 129.144 51.2721 129.572 50.7213 129.572C50.1705 129.572 49.7198 129.144 49.7198 128.621ZM77.7596 128.648C77.7596 127.359 79.5393 126.558 80.1883 127.555C80.4985 128.032 80.079 128.667 79.256 128.967C78.433 129.267 77.7596 129.123 77.7596 128.648H77.7596ZM52.4226 127.347C52.0932 126.532 50.7006 126.192 48.56 126.403C46.0755 126.649 45.7152 126.528 47.1619 125.936C49.0309 125.171 49.0206 125.115 46.9115 124.592C45.4226 124.222 44.7119 124.474 44.7119 125.372C44.7119 127.232 39.8351 126.706 39.19 124.776C38.635 123.116 28.689 117.828 28.689 119.193C28.689 119.651 30.461 120.884 32.6268 121.933C36.5855 123.85 38.6821 125.769 36.8187 125.769C36.2679 125.769 35.5387 125.341 35.1984 124.818C34.858 124.295 33.7898 123.867 32.8246 123.867C31.8594 123.867 30.1956 123.119 29.1275 122.204C28.0593 121.289 25.4958 119.342 23.4308 117.877C21.3657 116.412 19.6762 114.764 19.6762 114.213C19.6762 113.663 21.3008 114.566 23.2863 116.222C25.2719 117.877 27.1865 118.956 27.5409 118.619C27.8953 118.283 27.2846 117.42 26.1839 116.703C23.3595 114.862 20.6636 112.266 19.5532 110.319C17.9218 107.459 20.436 108.421 22.9009 111.601C24.1566 113.22 27.2119 115.647 29.6906 116.993C32.1691 118.34 34.8059 119.884 35.5499 120.424C36.2939 120.965 37.5063 121.491 38.2442 121.594C38.982 121.697 41.3956 122.022 43.6078 122.315C47.582 122.843 51.6209 124.507 52.862 126.128C53.7688 127.313 55.9017 125.855 55.0888 124.606C54.6873 123.989 54.8833 123.847 55.5759 124.254C56.4035 124.739 56.4377 125.461 55.6954 126.777C54.4849 128.925 53.1543 129.157 52.4229 127.347H52.4226ZM42.68 123.83C40.3227 122.415 39.1277 122.782 41.2642 124.265C42.3325 125.007 43.4196 125.411 43.6799 125.164C43.9402 124.917 43.4903 124.317 42.68 123.83H42.68ZM32.1517 126.655C31.7881 126.096 30.8368 125.878 30.0378 126.169C29.2387 126.46 28.8402 126.306 29.1522 125.827C29.4642 125.347 28.7671 124.668 27.6032 124.318C25.576 123.707 21.6789 120.591 21.6789 119.581C21.6789 118.99 25.6307 121.077 27.3761 122.59C28.0737 123.195 30.0063 124.262 31.671 124.961C33.3356 125.661 34.6975 126.557 34.6975 126.952C34.6975 128.027 32.909 127.818 32.1517 126.655H32.1517ZM58.7124 125.315C59.745 124.134 59.7158 123.867 58.5536 123.867C57.7702 123.867 56.5993 123.364 55.9518 122.75C55.0496 121.893 55.4765 121.227 57.7785 119.897C61.2237 117.908 61.7357 117.805 61.7357 119.096C61.7357 119.609 60.6091 120.297 59.2321 120.625C57.8552 120.953 56.7285 121.603 56.7285 122.069C56.7285 123.692 59.1407 122.9 61.9312 120.362C63.4761 118.957 64.74 118.279 64.74 118.857C64.74 119.434 63.5007 120.784 61.9861 121.857C60.4714 122.93 59.6998 123.821 60.2713 123.837C60.8429 123.853 62.8708 122.555 64.7778 120.95C66.6847 119.346 67.7128 118.283 67.0624 118.589C65.5796 119.286 64.337 117.561 65.7321 116.742C67.3752 115.778 69.6914 110.954 70.3231 107.181C70.7621 104.558 70.6005 103.876 69.6697 104.422C68.7313 104.973 68.5888 104.252 69.079 101.435C69.4343 99.3925 69.73 96.759 69.736 95.5824C69.742 94.4058 70.2281 93.4431 70.816 93.4431C71.4291 93.4431 71.6138 94.2538 71.2492 95.3447C70.8531 96.5294 71.0692 97.2462 71.8225 97.2462C73.3124 97.2462 72.4296 87.0528 70.8061 85.5109C70.2236 84.9579 69.747 83.5952 69.747 82.4826C69.747 80.407 66.2471 71.5675 62.4166 63.9695C59.6164 58.4148 53.5997 52.5855 50.0329 51.9711C42.897 50.7425 35.4876 55.2296 32.1287 62.8132C30.0109 67.5954 30.2079 79.0154 32.4673 82.4424C32.8361 83.0019 33.2172 83.9545 33.3141 84.5591C33.4109 85.1639 35.0008 87.596 36.8473 89.9638C39.735 93.6671 40.6243 94.22 43.2086 93.92C44.861 93.728 46.7039 93.5421 47.304 93.5069C48.409 93.442 50.7194 89.4413 50.7194 87.5929C50.7194 87.0392 49.3799 87.9475 47.7428 89.6115C44.829 92.5728 42.2409 92.8522 43.3595 90.0846C43.6742 89.3061 43.3575 88.6889 42.6436 88.6889C41.9395 88.6889 40.5393 87.9809 39.5321 87.1153C38.4513 86.1867 37.7008 85.9886 37.7008 86.6318C37.7008 87.2315 38.6021 88.2564 39.7037 88.9096C40.8052 89.5626 41.7065 90.4463 41.7065 90.8729C41.7065 91.2998 40.7608 91.0201 39.6048 90.2514C37.1105 88.5926 34.4721 84.0982 35.2717 82.8698C36.1535 81.5152 37.6809 82.8812 37.0448 84.4517C36.6608 85.4019 36.9477 85.6865 37.9296 85.3287C38.7288 85.0376 39.9608 85.4606 40.6672 86.2688C42.5209 88.3892 48.6054 88.2391 48.5476 86.0743C48.5232 85.1591 48.9338 82.4281 49.4602 80.0053C50.8115 73.7845 47.2807 65.0047 43.3998 64.9341C42.9542 64.9261 42.8682 65.3474 43.2086 65.8703C43.549 66.3932 43.3556 66.821 42.7788 66.821C42.202 66.821 41.4418 68.5324 41.0895 70.6241C40.7372 72.7158 40.0293 74.4272 39.5164 74.4272C39.0035 74.4272 38.8432 74.0289 39.16 73.5421C39.4769 73.0553 39.2709 72.3839 38.7021 72.0502C38.1334 71.7165 38.0007 70.9382 38.4073 70.3207C39.5304 68.6148 39.6361 66.821 38.6135 66.821C38.1114 66.821 37.7007 67.6767 37.7007 68.7226C37.7007 69.7684 37.2142 70.624 36.6197 70.624C35.3394 70.624 36.4566 64.6191 37.8288 64.1252C38.316 63.9498 38.5133 63.497 38.2673 63.1191C38.0212 62.7411 38.8286 61.2309 40.0614 59.7629C42.6709 56.656 47.1719 55.8223 50.4338 57.8417C53.9417 60.0135 55.2985 59.4414 52.7494 56.8654C50.8438 54.9396 49.7739 54.6103 46.8166 55.0393C42.1847 55.7114 38.9354 57.718 36.8538 61.1919C35.9426 62.7124 34.804 63.9593 34.3234 63.9626C33.8429 63.966 33.9517 63.3945 34.5651 62.6927C35.1786 61.991 35.4471 61.1953 35.162 60.9246C34.4677 60.2654 42.3759 53.5318 43.9626 53.4311C44.6495 53.3876 46.3024 53.2397 47.6358 53.1026C49.8909 52.8708 51.543 53.9455 58.0859 59.9004C59.7391 61.405 63.2664 67.9251 65.1174 72.8976C65.6851 74.4225 65.555 74.5132 64.2617 73.4943C63.423 72.8334 62.7367 71.6483 62.7367 70.8609C62.7367 69.0374 56.8526 59.2144 55.7603 59.2144C53.9954 59.2144 53.9363 61.8977 55.6915 62.3334C57.5627 62.798 61.3632 69.7224 63.2419 76.0903C63.589 77.2668 64.2792 78.2296 64.7756 78.2296C65.272 78.2296 65.4187 77.5878 65.1017 76.8034C64.7847 76.019 64.9753 75.3773 65.5253 75.3773C66.4382 75.3773 67.7009 78.4569 68.254 82.0325C68.3754 82.817 68.8266 84.6991 69.2568 86.2151C69.8173 88.1909 69.7146 88.7813 68.894 88.2999C68.2643 87.9304 67.4634 85.9317 67.1142 83.8584C66.7651 81.7853 66.1152 79.8752 65.67 79.6141C64.2427 78.7766 65.0791 83.3549 66.9422 86.5776C69.1385 90.3766 69.256 94.0434 67.2431 95.9545C66.4169 96.7389 65.741 98.1657 65.741 99.1253C65.741 100.402 65.2036 100.736 63.7381 100.372C62.3023 100.016 61.7352 100.343 61.7352 101.529C61.7352 102.96 61.9592 103.007 63.4003 101.877C64.8283 100.758 64.9911 100.775 64.5443 101.999C64.2577 102.783 63.2378 103.358 62.2777 103.277C61.3097 103.195 59.8149 104.315 58.9218 105.793C57.0517 108.886 52.4541 110.507 46.7757 110.074C38.2552 109.424 27.3744 98.7097 26.0224 89.6383C25.7186 87.5998 25.8195 87.4993 26.7313 88.9327C27.316 89.8521 27.518 91.0286 27.1803 91.5474C26.8426 92.0663 26.9309 92.491 27.3765 92.4915C27.8221 92.4921 29.4344 94.6018 30.9595 97.1797C35.2395 104.414 40.3287 107.741 47.7697 108.169C53.6625 108.507 54.024 108.394 57.3137 105.178C59.1942 103.339 60.7328 100.983 60.7328 99.9412C60.7328 98.4996 59.9454 99.0299 57.4357 102.162C54.6958 105.581 53.4848 106.328 50.2708 106.581C48.1435 106.748 45.3544 106.635 44.0727 106.329C41.1087 105.623 35.1764 100.701 31.5199 95.9134C28.0191 91.3303 27.7794 89.1086 31.1923 92.8761C32.5686 94.3956 33.6947 95.9462 33.6947 96.3221C33.6947 97.6046 40.3559 103.914 41.0321 103.272C41.4029 102.92 41.7062 103.112 41.7062 103.698C41.7062 105.244 48.4508 106.243 50.1024 104.942C50.8528 104.351 52.2737 104.161 53.26 104.52C54.4913 104.969 54.8265 104.825 54.3293 104.061C53.472 102.745 50.0295 102.571 49.5508 103.82C49.1002 104.996 41.8213 102.535 39.8065 100.525C38.3104 99.0328 38.3716 99.0096 40.7048 100.185C44.6757 102.185 48.7013 102.306 50.8168 100.488C52.0317 99.4444 52.7219 99.2694 52.7219 100.005C52.7219 100.64 53.1726 100.895 53.7234 100.572C54.2742 100.249 54.7248 99.5567 54.7248 99.0338C54.7248 98.5108 54.2742 98.3474 53.7234 98.6706C52.6453 99.3033 52.3261 97.9373 53.3294 96.9847C54.6485 95.7323 56.5264 98.6491 55.5385 100.416C53.8458 103.443 55.4451 103.219 57.3468 100.162C58.3454 98.5576 59.7412 97.2444 60.4486 97.2444C61.156 97.2444 61.7348 96.8166 61.7348 96.2937C61.7348 95.7708 62.2159 95.3429 62.8038 95.3429C63.4169 95.3429 63.6016 96.1536 63.237 97.2444C62.8874 98.2903 63.0465 99.146 63.5907 99.146C64.9035 99.146 66.2155 93.7985 65.9233 89.6383C65.6137 85.23 64.9708 83.6856 63.7447 84.405C63.1446 84.7572 62.7403 83.7227 62.7463 81.8507C62.759 77.8988 59.0925 67.8477 56.5357 64.825L54.6042 62.5418L56.2075 65.8695C57.0893 67.6997 58.1857 69.853 58.644 70.6546C59.6098 72.3437 60.4097 75.9446 61.1991 82.1565C61.6742 85.8952 61.48 86.6279 59.9107 87.0176C58.0345 87.4833 57.6708 88.6235 57.6332 94.1548C57.6217 95.8543 57.1613 97.2448 56.6101 97.2448C56.0589 97.2448 55.9295 96.7508 56.3225 96.1471C56.7868 95.4338 56.5946 95.3089 55.7736 95.7907C54.8125 96.3547 54.7155 95.9917 55.3685 94.2738C56.4418 91.4501 56.1039 78.2083 54.9301 77.0933C54.4388 76.6268 54.247 77.4722 54.489 79.0377C54.7245 80.5608 54.5052 82.049 54.0016 82.3445C53.498 82.6399 53.0807 81.7278 53.0744 80.3178C53.0684 78.9077 52.7403 76.1496 52.3462 74.1886C51.53 70.1277 52.305 69.4588 53.7232 73.0002C54.2468 74.3074 55.3623 75.3771 56.202 75.3771C57.3642 75.3771 57.729 76.499 57.729 80.0747C57.729 82.6585 58.1963 85.0467 58.7675 85.3818C59.7265 85.9445 59.467 80.2711 58.2848 74.8269C57.7117 72.1875 54.8134 66.8238 52.0404 63.2704C50.1709 60.875 50.0176 60.3335 51.3458 60.8174C52.4004 61.2016 52.8053 61.0619 52.4076 60.451C51.4747 59.0179 43.8974 58.0673 41.9038 59.1333C40.5645 59.8494 40.8936 60.0245 43.455 59.9587C47.2268 59.8619 51.3542 63.3997 54.671 69.5724C56.9246 73.7663 57.1013 74.426 55.9706 74.426C55.5542 74.426 54.595 73.0991 53.839 71.4775C52.8147 69.2807 52.2458 68.8565 51.607 69.8137C50.9082 70.8606 50.7248 70.8344 50.6157 69.6721C50.5421 68.8877 50.5449 67.8972 50.6217 67.4709C50.6989 67.0447 49.8121 65.4293 48.6511 63.8813C46.9459 61.6079 45.8952 61.1079 43.1861 61.2811C41.3415 61.399 40.0672 61.8565 40.3544 62.2977C40.6416 62.739 40.332 63.723 39.6664 64.4845C38.1391 66.2316 38.7414 66.2298 42.3008 64.4765C44.8449 63.2235 45.2831 63.2473 46.6786 64.7142C49.4354 67.6122 50.9539 71.9172 51.362 77.9917C51.6476 82.2422 51.4132 83.9339 50.5389 83.9339C49.6131 83.9339 49.5978 84.2009 50.4759 85.0345C51.354 85.8682 51.9805 85.863 53.0588 85.014C54.2111 84.106 54.5678 84.3165 54.9305 86.1179C55.177 87.342 55.0378 89.1699 54.6212 90.1798C53.9558 91.7927 53.8504 91.7269 53.7541 89.639C53.6464 87.3022 53.621 87.3103 52.2478 90.1144C51.4796 91.6832 50.4476 93.5153 49.9546 94.186C48.9323 95.5764 39.7113 96.9187 39.6869 95.6806C39.6572 94.1777 33.9849 88.7302 33.174 89.4259C32.7328 89.8046 32.6462 89.6559 32.9817 89.0955C33.3172 88.5351 32.8984 86.8236 32.051 85.2924C30.0385 81.6559 29.6198 79.853 29.2046 73.0332C28.5575 62.4057 34.8112 53.0179 44.0151 50.8004C47.4839 49.9645 48.8736 50.105 52.5953 51.668C55.0379 52.6937 57.2671 53.314 57.5491 53.0461C57.8312 52.7783 57.8742 52.4522 57.6448 52.3215C52.8524 49.5916 50.1115 48.7561 45.9478 48.7561C41.5676 48.7561 40.4409 49.2116 36.3383 52.6399C33.1733 55.2848 31.6909 56.0462 31.6909 55.0265C31.6909 54.2031 34.1678 51.9679 37.1952 50.0596C42.3828 46.7896 43.0456 46.6197 48.7148 47.1078C53.5622 47.5251 54.9033 47.332 55.6215 46.1135C56.4285 44.7444 56.768 44.7602 59.2101 46.2794C60.6937 47.2023 62.1509 47.7262 62.4483 47.4439C63.2131 46.7178 68.7437 49.5625 68.7437 50.6821C68.7437 52.0206 66.9828 51.8221 66.4935 50.4285C66.1878 49.5577 65.6633 49.6433 64.4924 50.755C63.0442 52.1299 63.2837 52.6472 67.2326 56.6728C70.6055 60.1114 72.1324 62.8287 74.1575 68.9969C75.5862 73.3494 76.7552 77.4211 76.7552 78.0451C76.7552 78.6693 77.1308 79.18 77.5897 79.18C78.7536 79.18 78.6907 76.0997 77.4975 74.6638C76.9543 74.0102 76.7744 73.4754 77.0977 73.4754C77.421 73.4754 76.8162 71.55 75.7538 69.1969C73.9371 65.1731 73.9978 64.4748 76.1321 64.8464C76.9778 64.9937 76.7752 63.7603 75.2849 59.6892C74.5987 57.8146 74.6112 57.8138 76.1727 59.6332C77.9644 61.7208 78.249 64.5173 76.7589 65.3916C76.1245 65.7638 76.2686 66.9097 77.1546 68.5377C79.0519 72.0242 80.7914 78.4071 80.9524 82.4746C81.0256 84.3229 81.4934 85.8353 81.9921 85.8353C83.0504 85.8353 82.0554 77.1616 80.5831 73.5533C80.0323 72.2033 79.4351 70.457 79.2561 69.6725C79.0771 68.8882 78.6182 67.4976 78.2365 66.5825C77.8353 65.6207 77.9969 64.9187 78.6196 64.9187C79.212 64.9187 79.4487 64.17 79.1457 63.2549C77.9459 59.6323 82.0376 65.4703 85.2996 72.0355C89.8701 81.2341 88.4993 81.9105 83.7572 72.7964C79.4878 64.5909 78.4523 63.9597 82.0973 71.7847C83.3831 74.5448 84.4806 77.0172 84.5363 77.2785C84.5919 77.54 84.8725 78.3957 85.1597 79.1801C85.4469 79.9645 86.1481 82.1037 86.718 83.9339C87.5006 86.4479 87.6665 86.6165 87.3961 84.6243C87.1993 83.1738 87.3952 81.7777 87.8315 81.5217C89.0299 80.8184 91.0833 91.1711 91.1856 98.4312C91.2353 101.96 91.614 104.848 92.0271 104.849C92.4402 104.85 92.7782 105.287 92.7782 105.82C92.7782 106.353 91.6516 106.595 90.2746 106.358C88.258 106.011 87.771 106.314 87.771 107.914C87.771 109.007 86.6215 111.331 85.2164 113.08C83.8114 114.829 83.0228 116.253 83.4639 116.245C84.8593 116.219 86.3917 114.893 87.0859 113.11C87.4686 112.126 88.2499 111.675 88.9043 112.059C89.9627 112.68 81.684 121.027 76.2543 124.813C74.3086 126.17 74.3015 126.154 76.004 124.25C78.2058 121.788 78.2355 120.899 76.0901 121.68C74.2603 122.347 74.7969 120.982 77.5689 117.918C78.3997 117 78.7771 115.961 78.4076 115.61C78.0381 115.26 77.0362 115.797 76.181 116.805C74.4483 118.847 74.562 118.4 77.1533 112.984C79.3716 108.348 79.9694 106.192 80.1326 102.236C80.2027 100.537 80.6608 99.1462 81.1506 99.1462C82.4397 99.1462 81.1321 108.066 79.3683 111.304C78.0121 113.794 78.0309 114.213 79.5651 115.692C81.1594 117.228 81.1561 117.401 79.509 118.561C77.3595 120.076 77.2639 121.013 79.2586 121.013C80.0848 121.013 80.7608 120.407 80.7608 119.666C80.7608 118.925 81.3241 118.07 82.0126 117.765C83.0055 117.325 83.0075 117.096 82.0226 116.659C81.1357 116.265 81.4988 115.214 83.2933 112.98C84.8861 110.997 85.5808 109.198 85.1915 108.065C84.6851 106.59 84.7669 106.526 85.658 107.703C86.5921 108.935 86.7407 108.903 86.7539 107.465C86.762 106.55 86.3186 105.801 85.7679 105.801C85.2171 105.801 84.7664 105.413 84.7664 104.939C84.7664 104.465 85.555 104.19 86.5189 104.327C87.4828 104.465 87.6913 104.39 86.9822 104.162C85.1611 103.575 85.6285 90.5883 87.4707 90.5883C88.1865 90.5883 88.7722 89.9108 88.7722 89.0828C88.7722 88.2549 88.2089 87.7624 87.5204 87.9883C86.8274 88.2158 85.7141 87.0839 85.0264 85.4529C83.8136 82.5766 83.7967 82.6081 84.3117 86.7852C84.8233 90.9347 84.7937 90.992 83.3293 88.6867C81.87 86.3893 81.832 86.4688 82.1924 91.0636C82.7173 97.7545 82.9189 98.1614 83.842 94.3913C84.3458 92.3339 84.4695 94.8745 84.1661 101.047C83.7557 109.397 83.3463 111.341 81.6625 112.931L79.6496 114.833L80.8027 111.98C82.7366 107.197 83.6246 99.0344 82.2648 98.539C81.6105 98.3007 80.9907 96.0935 80.8874 93.634C80.7842 91.1746 80.5456 88.5206 80.3572 87.7362C80.1687 86.9518 79.6755 84.9196 79.261 83.22C78.8466 81.5207 78.1367 80.1301 77.6833 80.1301C77.23 80.1301 77.3193 81.3837 77.8818 82.9153C78.4443 84.4471 78.7518 86.9073 78.5652 88.3822C78.3153 90.3567 77.769 89.2204 76.4934 84.0731C75.5406 80.2284 75.0109 76.6986 75.3164 76.2294C75.6218 75.7601 75.3945 75.3764 74.8112 75.3764C74.2279 75.3764 73.7506 73.9041 73.7506 72.1047C73.7506 70.3053 73.3499 68.598 72.8601 68.3106C72.3704 68.0232 71.664 66.6319 71.2904 65.2187C70.4093 61.8858 61.6512 51.4447 58.3142 49.7488C54.6188 47.8712 53.9828 49.1824 57.6038 51.2131C59.2644 52.1444 60.3956 53.2556 60.1176 53.6826C59.8397 54.1096 60.3148 54.459 61.1735 54.459C62.0322 54.459 62.7387 54.7798 62.7435 55.172C62.7485 55.5642 64.2129 57.3912 65.9981 59.2319C67.7834 61.0726 69.4198 63.2119 69.6347 63.9858C69.8494 64.7596 70.7813 67.9797 71.7054 71.1414C72.6296 74.3032 73.2187 77.3658 73.0146 77.9473C72.8104 78.5287 73.1178 79.283 73.6977 79.6232C74.2775 79.9634 74.752 80.6968 74.752 81.2529C74.752 81.8905 74.197 81.8268 73.2498 81.0803C72.4236 80.4294 71.7476 79.2285 71.7476 78.4118C71.7476 77.5951 70.7762 74.9734 69.5889 72.5859C68.4017 70.1984 67.0405 67.3893 66.5642 66.3436C65.7543 64.5655 65.7807 64.5554 66.9704 66.1882C70.5489 71.0999 70.6941 71.2232 69.9503 68.7205C69.5619 67.4132 68.689 65.4879 68.0106 64.442C66.9959 62.8777 66.6127 62.7782 65.8499 63.8804C64.7321 65.496 65.6318 68.3164 69.892 76.5509C70.3618 77.4589 70.7461 78.9403 70.7461 79.8429C70.7461 80.7454 71.8749 82.3556 73.2545 83.4211C75.0353 84.7964 75.9463 86.6683 76.395 89.8744C76.7856 92.666 76.6424 94.3906 76.0198 94.3906C75.4659 94.3906 75.0158 93.6419 75.0196 92.7267C75.0399 87.7761 74.5945 85.8202 73.1304 84.4303C72.2387 83.5836 71.2378 83.1485 70.9062 83.4633C70.5746 83.7781 70.9284 84.4024 71.6924 84.8506C73.5628 85.9481 73.8514 98.783 71.9979 98.431C71.3094 98.3003 70.7461 98.6211 70.7461 99.1441C70.7461 99.667 71.1967 100.095 71.7475 100.095C72.2983 100.095 72.7489 100.992 72.7489 102.088C72.7489 104.787 69.7553 114.533 68.4528 116.074C67.8752 116.757 67.817 117.185 68.3233 117.024C69.2354 116.736 69.7446 117.425 69.7446 118.949C69.7446 119.881 62.0666 125.161 59.3383 126.104C57.7311 126.66 57.6358 126.54 58.7098 125.312L58.7124 125.315ZM89.6133 101.287C89.4547 100.371 89.6549 99.1239 90.0582 98.514C90.4615 97.9044 90.3663 96.3438 89.8468 95.0465C89.3272 93.749 89.1738 92.4298 89.5058 92.1144C89.8378 91.7993 89.5838 91.5413 88.9411 91.5413C87.5062 91.5413 87.3846 95.0044 88.7906 95.8293C89.3503 96.1577 89.5445 96.8318 89.2221 97.3271C88.8996 97.8224 88.1579 97.9471 87.5737 97.6044C86.9351 97.2297 86.7628 97.5076 87.1415 98.302C87.488 99.0285 88.0497 100.371 88.3897 101.287C88.7297 102.202 89.209 102.95 89.4547 102.95C89.7005 102.95 89.7719 102.202 89.6133 101.287H89.6133ZM66.2544 61.5727C66.8617 61.0422 66.5239 60.9545 65.3801 61.3458C63.9961 61.8192 63.6624 61.6214 64.0843 60.5778C64.4167 59.7553 63.3737 57.9581 61.5703 56.2459C57.6832 52.5555 56.7465 53.2275 59.985 57.3833C61.3361 59.1171 62.7578 61.3794 63.1443 62.4106C63.538 63.461 64.1587 63.8791 64.5559 63.3613C64.9458 62.853 65.7101 62.0481 66.2545 61.5727H66.2544ZM64.3808 49.6015C64.6437 49.6015 64.6064 49.2139 64.2979 48.74C63.9894 48.2662 62.8871 48.0896 61.8483 48.3475C60.8094 48.6054 59.6567 48.3509 59.2866 47.7828C58.9166 47.2144 58.077 46.7587 57.4211 46.7704C56.7651 46.782 57.355 47.6301 58.732 48.6551C60.109 49.68 61.8358 50.3122 62.5694 50.06C63.3029 49.8079 64.1181 49.6015 64.381 49.6015H64.3808ZM50.2206 122.811C49.8802 122.288 50.5295 121.86 51.6636 121.86C52.7976 121.86 53.7256 122.288 53.7256 122.811C53.7256 123.334 53.0762 123.762 52.2826 123.762C51.4889 123.762 50.561 123.334 50.2206 122.811ZM81.7464 122.358C82.4426 121.561 83.6329 120.91 84.3917 120.91C85.1504 120.91 85.6586 120.528 85.5209 120.062C85.2603 119.18 89.5629 115.205 90.7778 115.205C92.0145 115.205 84.3298 122.469 82.375 123.148C80.7676 123.706 80.6725 123.586 81.7465 122.358H81.7464ZM45.1738 120.85C44.2479 119.427 44.5504 119.31 50.4702 118.794C56.1513 118.3 57.0206 118.603 53.4745 119.843C48.7801 121.485 45.8208 121.844 45.1738 120.85V120.85ZM38.9538 119.929C37.7145 119.456 36.7005 118.842 36.7005 118.563C36.7005 117.519 40.3967 118.11 42.2674 119.453C44.5361 121.082 42.6758 121.35 38.9538 119.929ZM32.6857 116.621C31.3343 115.075 32.3941 114.752 34.5542 116.051C35.3795 116.548 35.5223 117.098 34.918 117.452C34.3708 117.774 33.3662 117.399 32.6857 116.621H32.6857ZM39.1942 116.689C37.5472 116.03 34.6993 114.29 32.8654 112.823C30.8615 111.219 29.6101 110.688 29.7293 111.491C29.8385 112.226 29.8744 113.629 29.8091 114.608C29.7093 116.105 29.4433 116.194 28.1409 115.168C26.9849 114.257 26.8971 113.767 27.7949 113.24C28.6378 112.746 28.1581 111.795 26.1939 110.066C24.6514 108.709 23.7132 107.599 24.109 107.599C24.5048 107.599 23.8537 106.422 22.6621 104.984C20.8407 102.786 17.6733 96.8268 17.6733 95.5982C17.6733 95.4006 18.1153 95.239 18.6556 95.239C19.1959 95.239 19.9288 96.3392 20.2843 97.6838C20.6398 99.0285 22.5159 102.344 24.4532 105.052C28.8138 111.147 28.5662 110.885 29.2993 110.189C29.635 109.87 28.4632 107.574 26.6952 105.087C22.6098 99.3401 19.5853 92.3861 21.171 92.3861C21.6173 92.3861 24.0336 97.3565 24.6375 99.5168C24.7837 100.04 25.755 101.603 26.7961 102.991C27.8371 104.379 28.6888 105.8 28.6888 106.149C28.6888 107.348 31.6786 109.621 32.5692 109.098C33.0595 108.81 34.5986 109.425 35.9896 110.463C38.7323 112.512 40.7061 112.907 40.7061 111.407C40.7061 110.345 44.2398 110.629 45.4371 111.787C45.8644 112.2 45.3127 112.396 44.2111 112.223C43.1096 112.05 42.2083 112.329 42.2083 112.843C42.2083 113.842 42.5571 113.937 47.2155 114.211C49.8325 114.365 49.9616 114.493 48.2169 115.204C46.5385 115.889 46.7412 116.032 49.4687 116.088C51.2587 116.126 52.7234 116.617 52.7234 117.182C52.7234 118.394 46.3993 117.338 45.8803 116.039C45.6967 115.58 44.5701 115.211 43.3767 115.219C41.7777 115.23 41.5643 115.448 42.5656 116.051C44.9062 117.459 42.3347 117.945 39.1941 116.688L39.1942 116.689ZM41.1883 115.234C41.6951 114.455 39.852 113.389 33.1955 110.608C32.6447 110.378 33.2735 111.305 34.5928 112.668C35.9121 114.031 37.3456 114.939 37.7783 114.685C38.2109 114.431 38.848 114.659 39.1939 115.189C39.9794 116.396 40.4251 116.406 41.1882 115.234H41.1883ZM59.5196 115.557C61.2899 114.242 62.7383 112.526 62.7383 111.744C62.7383 110.794 63.3523 110.508 64.5906 110.881C66.0262 111.314 66.6792 110.74 67.4927 108.331C68.3517 105.787 68.561 105.619 68.6447 107.408C68.701 108.611 68.1171 110.751 67.3473 112.164C65.6236 115.329 61.7369 118.816 61.7369 117.198C61.7369 116.512 61.2286 116.345 60.4851 116.786C57.3644 118.637 56.6311 117.703 59.5196 115.557L59.5196 115.557ZM64.7742 113.779C66.1331 112.02 66.1119 111.975 64.4908 113.182C63.5269 113.9 62.7383 114.934 62.7383 115.48C62.7383 116.026 62.8658 116.294 63.0216 116.077C63.1775 115.859 63.9661 114.825 64.7742 113.779ZM71.322 115.612C70.9375 114.158 71.1008 112.59 71.6958 112.025C72.277 111.473 72.7595 109.931 72.768 108.597C72.776 107.264 73.2201 105.531 73.7541 104.747C75.4223 102.296 74.937 108.672 73.217 111.803C72.0021 114.015 71.9506 114.734 72.9645 115.329C73.901 115.879 73.9426 116.357 73.1216 117.136C72.3006 117.916 71.8243 117.512 71.322 115.612H71.322ZM53.7249 116.156C53.7249 115.633 53.1455 115.205 52.4373 115.205C50.9133 115.205 50.6763 111.468 52.187 111.257C52.7574 111.177 53.6748 111.05 54.2256 110.975C56.4895 110.664 59.7335 107.981 59.7335 106.419C59.7335 104.494 60.9986 104.305 63.9259 105.792C65.4269 106.555 65.7986 106.553 65.2995 105.781C64.5657 104.654 66.5352 98.2312 68.0967 96.6591C68.7025 96.0493 68.834 96.2704 68.4634 97.2761C68.1456 98.1381 67.338 101.486 66.6689 104.715C65.9934 107.975 65.1268 110.088 64.7208 109.464C64.1614 108.605 63.8186 108.603 63.2623 109.453C62.8624 110.067 61.9541 110.358 61.2441 110.099C60.534 109.841 58.9546 110.512 57.7343 111.592C56.0711 113.063 55.3226 113.258 54.7453 112.371C54.1982 111.53 53.7767 111.493 53.2902 112.24C52.9134 112.82 52.9865 113.293 53.4526 113.293C53.9187 113.293 54.3679 114.149 54.4509 115.195C54.5339 116.24 54.4044 117.096 54.1633 117.096C53.9221 117.096 53.7248 116.668 53.7248 116.145L53.7249 116.156ZM63.1023 106.439C62.7288 105.865 62.1494 106.001 61.6265 106.784C60.2577 108.835 60.5978 109.841 62.226 108.558C63.0462 107.912 63.4404 106.958 63.1023 106.439H63.1023ZM55.7277 115.574C55.7277 114.873 60.0164 111.475 60.9539 111.434C61.3497 111.416 61.4375 111.986 61.1491 112.699C60.6246 113.997 55.7277 116.594 55.7277 115.574H55.7277ZM47.2155 112.353C46.8751 111.83 47.0473 111.402 47.598 111.402C48.1488 111.402 48.878 111.83 49.2184 112.353C49.5588 112.876 49.3866 113.303 48.8358 113.303C48.2851 113.303 47.5559 112.876 47.2155 112.353ZM74.7551 112.465C74.7551 111.942 75.2057 111.25 75.7565 110.927C76.3073 110.604 76.7579 110.767 76.7579 111.29C76.7579 111.813 76.3073 112.505 75.7565 112.829C75.2057 113.152 74.7551 112.988 74.7551 112.465ZM16.6721 110.871C16.6721 110.056 17.1228 109.653 17.6736 109.976C18.2244 110.299 18.675 110.967 18.675 111.459C18.675 111.951 18.2244 112.353 17.6736 112.353C17.1228 112.353 16.6721 111.686 16.6721 110.871ZM23.0452 110.061C14.7368 99.4138 12.7867 96.1903 14.6537 96.1903C15.1613 96.1903 16.363 97.7948 17.324 99.7557C18.285 101.717 19.3227 103.535 19.6299 103.796C21.3492 105.26 25.8125 111.598 25.3996 111.99C25.1313 112.245 24.0718 111.377 23.0452 110.061V110.061ZM91.8587 111.006C91.8153 110.004 92.0519 109.442 92.3847 109.758C92.7174 110.074 92.753 110.894 92.4637 111.581C92.1441 112.339 91.9068 112.114 91.8587 111.006H91.8587ZM36.71 109.036C36.0294 108.257 35.0729 107.855 34.5845 108.141C34.0962 108.428 33.6966 107.995 33.6966 107.18C33.6966 105.237 33.8759 105.281 37.2961 108.074C38.8964 109.38 39.6978 110.45 39.0767 110.451C38.4557 110.451 37.3907 109.815 36.71 109.036V109.036ZM88.7757 110.093C88.7757 109.895 89.462 109.193 90.3008 108.532C91.5759 107.527 91.7224 107.586 91.195 108.891C90.6564 110.224 88.7757 111.158 88.7757 110.093H88.7757ZM76.1174 107.837C77.4396 103.4 77.9367 95.9742 76.8696 96.6001C76.2574 96.9593 75.7566 98.5367 75.7566 100.105C75.7566 101.674 75.3932 102.745 74.9491 102.484C73.58 101.681 74.8406 95.2395 76.3668 95.2395C77.1327 95.2395 77.7595 94.3838 77.7595 93.338C77.7595 92.2922 78.1305 91.4365 78.5839 91.4365C79.3872 91.4365 79.2291 99.516 78.3513 103.321C78.1101 104.367 77.8782 106.185 77.8361 107.362C77.7939 108.538 77.2784 109.501 76.6905 109.501C76.1026 109.501 75.8447 108.752 76.1174 107.837L76.1174 107.837ZM14.0133 107.083C13.6872 106.276 13.6441 105.403 13.9176 105.144C14.191 104.884 14.6552 105.544 14.949 106.611C15.573 108.877 14.8797 109.226 14.0133 107.083H14.0133ZM17.3396 106.965C16.9724 106.617 16.672 105.89 16.672 105.349C16.672 104.754 17.1384 104.81 17.857 105.492C18.5088 106.111 18.8092 106.838 18.5246 107.108C18.2401 107.378 17.7068 107.314 17.3396 106.965ZM27.4108 100.754C25.9108 98.5573 24.6835 96.0616 24.6835 95.2077C24.6835 94.3537 24.37 93.3573 23.9869 92.9935C23.6038 92.6298 23.1844 91.6468 23.0549 90.8093C22.686 88.4234 24.0725 90.4892 26.6663 96.1902C27.9749 99.0663 29.9166 102.168 30.9811 103.083C32.3418 104.253 32.5041 104.747 31.5275 104.747C30.7634 104.747 28.9109 102.95 27.4108 100.754H27.4108ZM14.1683 101.895C13.8279 101.372 14.0266 100.944 14.6099 100.944C15.1932 100.944 15.6705 101.372 15.6705 101.895C15.6705 102.418 15.4717 102.846 15.2288 102.846C14.986 102.846 14.5087 102.418 14.1683 101.895H14.1683ZM92.7802 101.476C92.7802 99.8056 93.3812 99.5597 94.2396 100.878C94.5565 101.365 94.3577 102.032 93.798 102.361C93.2382 102.689 92.7802 102.291 92.7802 101.476H92.7802ZM11.2064 100.059C10.8896 99.5722 11.0883 98.9052 11.6481 98.5768C12.2079 98.2482 12.6658 98.6463 12.6658 99.4619C12.6658 101.132 12.0649 101.378 11.2065 100.059H11.2064ZM41.7294 98.8457C36.0349 96.7704 33.693 94.6753 30.0352 88.3841C28.8417 86.3312 27.5842 85.1211 27.2221 85.6771C26.1152 87.3775 24.9398 86.7985 24.4378 84.3058C24.1746 82.9984 24.3474 81.9288 24.8218 81.9288C25.2962 81.9288 25.6844 82.5706 25.6844 83.355C25.6844 84.1393 26.135 84.7811 26.6858 84.7811C27.9549 84.7811 27.9647 82.7454 26.7106 79.6139C26.1734 78.2724 25.0382 77.175 24.1879 77.175C23.0054 77.175 22.8005 76.5602 23.3166 74.5604C23.6877 73.1224 24.3722 71.8032 24.8378 71.6289C26.2098 71.1153 25.8053 69.569 24.299 69.569C22.8478 69.569 21.7155 72.3568 21.6923 75.9866C21.6843 77.1632 21.2308 78.1258 20.6835 78.1258C20.1362 78.1258 19.8388 77.3771 20.0227 76.462C21.6227 68.5007 21.8881 67.8974 23.6041 68.3235C24.6117 68.5737 25.3566 68.225 25.3649 67.4992C25.388 65.4709 29.8545 56.2583 30.8148 56.2583C32.1511 56.2583 31.8634 57.7926 30.2955 59.028C29.0172 60.0353 27.0443 66.8279 27.8452 67.4644C28.0337 67.6142 27.5119 68.1425 26.6858 68.6383C25.8272 69.1536 25.6855 69.5461 26.3551 69.5544C27.0295 69.5636 27.4786 70.8799 27.4135 72.659C26.9683 84.8329 34.8268 96.3757 44.73 98.0955C46.9231 98.4762 48.7336 98.5244 48.7534 98.2026C48.8387 96.8155 53.5253 92.2636 54.0455 93.0626C54.3608 93.547 53.498 95.0908 52.1282 96.4933C50.7584 97.8959 49.9939 99.0499 50.4293 99.0579C50.8647 99.0692 50.545 99.4871 49.7188 99.9941C47.826 101.155 48.2199 101.212 41.7294 98.8465L41.7294 98.8457ZM25.3451 73.1973C25.0673 72.5437 24.84 73.0785 24.84 74.3858C24.84 75.6932 25.0673 76.2279 25.3451 75.5743C25.6229 74.9206 25.6229 73.851 25.3451 73.1973ZM9.68893 94.8971C8.43054 91.7548 8.36588 89.5979 9.52989 89.5979C10.4469 89.5979 11.9194 96.3275 11.1602 97.0483C10.9172 97.2789 10.2551 96.3109 9.68884 94.8971H9.68893ZM59.4406 95.5557C58.5242 94.0042 59.9959 87.6964 61.2743 87.6964C62.238 87.6964 62.386 88.4058 61.8196 90.311C61.392 91.749 61.2219 93.4211 61.4416 94.0269C61.8981 95.2854 60.0947 96.6632 59.4406 95.5557H59.4406ZM93.3273 95.0648C92.7365 93.2705 91.3516 86.4635 91.2477 84.8441C91.0958 82.4749 87.6476 73.2477 85.1309 68.4757C83.8302 66.0093 80.738 61.8236 78.2594 59.174C75.7807 56.5244 73.7701 53.836 73.7913 53.1998C73.8124 52.5636 75.8311 54.1823 78.2771 56.797C80.7232 59.4116 82.7338 61.0413 82.7451 60.4185C82.7564 59.7957 82.3151 59.0218 81.7643 58.6985C81.2135 58.3754 80.7629 57.6559 80.7629 57.0998C80.7629 56.4622 81.3178 56.5259 82.265 57.2723C83.0912 57.9233 83.7672 59.0706 83.7672 59.8218C83.7672 60.573 84.1451 60.9659 84.6071 60.6948C85.069 60.4238 86.4498 61.8959 87.6755 63.9664C88.9011 66.0368 90.2496 67.7307 90.6721 67.7307C91.0945 67.7307 92.035 68.7857 92.7618 70.0752C93.4887 71.3646 94.5358 72.1541 95.0886 71.8298C95.6415 71.5054 95.8219 71.6575 95.4896 72.168C95.1573 72.6785 95.5116 74.2421 96.277 75.6427C97.0423 77.0432 97.2304 78.189 96.695 78.189C96.1596 78.189 95.441 77.4403 95.0983 76.5252C94.2512 74.2636 83.5754 60.9403 83.0278 61.4608C82.7869 61.6895 83.4662 63.0867 84.5374 64.5658C85.6085 66.0449 87.2453 68.4453 88.1746 69.9C89.1039 71.3546 90.2282 72.3314 90.673 72.0704C91.1178 71.8094 92.0491 73.4001 92.7426 75.6054C93.4361 77.8107 94.517 79.9293 95.1445 80.3134C95.9609 80.8132 95.9233 81.0162 95.0123 81.0265C93.8281 81.0402 92.8245 79.3844 91.3364 74.9627C91.0032 73.9728 90.5153 73.3673 90.2521 73.6172C89.9889 73.867 90.6919 77.458 91.8145 81.597C92.9369 85.7361 94.0044 90.727 94.1866 92.688C94.5134 96.2061 94.0899 97.3788 93.328 95.0649L93.3273 95.0648ZM13.3058 94.6427C12.9536 94.3084 12.6723 93.1435 12.6807 92.054C12.6933 90.4209 12.8691 90.3237 13.6822 91.4995C14.4991 92.681 14.7798 92.5385 15.3181 90.6692L15.9679 88.4128L17.2854 90.6692C18.8898 93.4165 18.988 94.3518 17.6725 94.3518C17.1217 94.3518 16.6711 93.6847 16.6711 92.8695C16.6711 92.0542 16.2131 91.6559 15.6533 91.9844C15.0936 92.3128 14.8756 92.9504 15.169 93.401C15.8225 94.405 14.1967 95.4886 13.3057 94.6427H13.3058ZM63.1834 91.4167C62.8133 90.848 62.9891 89.9287 63.574 89.3733C64.3243 88.6609 64.5897 88.9653 64.4753 90.4069C64.2908 92.733 64.1248 92.8628 63.1834 91.4167V91.4167ZM19.5978 91.2618C19.1778 89.9589 18.5602 86.8071 18.387 85.0825C18.2689 83.9062 17.9469 82.9434 17.6715 82.9428C17.3961 82.9422 17.0331 79.5191 16.8648 75.336C16.6965 71.153 16.9219 67.732 17.3655 67.7341C17.8092 67.7364 18.2574 70.6952 18.3614 74.3098C18.5283 80.1064 19.6101 85.855 21.3391 90.1328C21.6429 90.8844 21.3927 91.4996 20.7829 91.4996C20.1732 91.4996 19.6399 91.3925 19.5977 91.2619L19.5978 91.2618ZM14.4972 86.0326C14.2753 85.1174 14.3887 82.8713 14.7493 81.041C15.1134 79.193 15.4636 78.6117 15.5368 79.7338C15.6093 80.8449 15.9503 83.0911 16.2946 84.7252C16.9466 87.8203 15.2332 89.0665 14.4972 86.0326H14.4972ZM21.8614 85.3235C21.233 84.014 21.1072 82.9426 21.582 82.9426C22.4135 82.9426 23.9117 86.8427 23.3024 87.4212C23.1384 87.5769 22.4899 86.633 21.8615 85.3235H21.8614ZM8.37896 85.4794C7.26309 82.7858 7.445 81.4098 8.75282 82.6515C9.35526 83.2234 9.67993 84.4856 9.47431 85.4561C9.11372 87.1584 9.07484 87.1592 8.37897 85.4789L8.37896 85.4794ZM11.7856 86.7456C11.6767 86.4841 11.3372 84.5589 11.0313 82.4672C10.6097 79.5849 10.7577 78.9227 11.6427 79.7318C12.285 80.3189 12.6245 82.2442 12.3971 84.0101C12.1698 85.7761 11.8946 87.0071 11.7856 86.7456V86.7456ZM4.73225 84.4479C4.68879 83.4457 4.92546 82.8841 5.25822 83.2001C5.59098 83.516 5.62656 84.3361 5.33733 85.0224C5.01765 85.7808 4.78035 85.5556 4.7323 84.4479H4.73225ZM40.2768 83.7027C39.3099 82.392 39.1091 81.3901 39.7392 81.0203C40.2925 80.6957 40.6235 79.391 40.4749 78.121C40.275 76.4136 40.6416 75.8804 41.8817 76.0748C42.804 76.2194 43.8875 75.8323 44.2896 75.2148C44.75 74.5077 44.5899 74.3447 43.8574 74.7745C42.0437 75.8387 41.288 72.6267 42.7444 70.0431C44.4462 67.0241 45.1539 67.1254 46.9493 70.645C49.1624 74.9834 48.1895 85.7949 45.5861 85.7949C45.0399 85.7949 44.8491 85.4015 45.162 84.9208C45.7847 83.9642 43.1276 81.041 41.6354 81.041C40.1337 81.041 40.5699 82.9528 42.2077 83.5495C43.0339 83.8505 43.7098 84.4789 43.7098 84.9458C43.7098 86.4993 41.8409 85.8226 40.277 83.7027L40.2768 83.7027ZM46.4856 75.3156C45.8324 68.8624 44.709 67.7887 43.2678 72.2405C42.7213 73.9286 42.9044 74.2546 44.1449 73.8027C45.3035 73.3806 45.7125 73.8368 45.7125 75.5517C45.7125 78.6553 44.7911 79.3514 42.9704 77.6228C41.1873 75.93 40.4089 76.3492 41.2895 78.5281C41.6441 79.4054 43.0275 80.0903 44.4448 80.0903C46.8713 80.0903 46.95 79.9063 46.4854 75.3156H46.4856ZM94.4485 85.161C94.0814 84.8125 93.7809 84.085 93.7809 83.5447C93.7809 82.949 94.2474 83.0051 94.966 83.6873C95.6177 84.3062 95.9181 85.0335 95.6336 85.3036C95.349 85.5738 94.8157 85.5097 94.4485 85.161ZM20.665 80.6053C20.665 78.9352 21.266 78.6893 22.1244 80.0081C22.4413 80.4948 22.2425 81.1619 21.6828 81.4904C21.123 81.8188 20.665 81.4209 20.665 80.6053H20.665ZM7.64683 78.2705C7.64683 76.497 8.06325 75.4479 8.63428 75.783C9.68659 76.4005 9.49551 79.5822 8.34026 80.679C7.95887 81.0412 7.64682 79.9572 7.64682 78.2705H7.64683ZM23.6701 79.5382C23.6701 78.7229 24.1207 78.3203 24.6715 78.6435C25.2223 78.9667 25.673 79.6337 25.673 80.1258C25.673 80.6178 25.2223 81.0204 24.6715 81.0204C24.1207 81.0204 23.6701 80.3534 23.6701 79.5382ZM34.1323 80.1509C34.4436 79.6726 34.2306 79.1332 33.6589 78.9524C33.0873 78.7714 32.6483 76.4888 32.6836 73.8797C32.7188 71.2706 32.7381 68.1732 32.7265 66.9966C32.7149 65.82 33.1689 64.8574 33.7353 64.8574C34.3689 64.8574 34.6288 67.1442 34.4106 70.7997C34.1703 74.8249 34.5178 77.432 35.4875 78.8812C36.7642 80.789 36.7377 81.0204 35.2427 81.0204C34.3206 81.0204 33.821 80.6291 34.1323 80.1509H34.1323ZM37.3564 79.4358C36.9892 79.0872 36.7024 78.1246 36.7192 77.2966C36.7442 76.0603 36.9396 76.1015 37.8124 77.5264C38.8907 79.2869 38.5781 80.5957 37.3564 79.4358H37.3564ZM4.45694 78.6254C4.08435 78.2717 4.05036 77.3121 4.38143 76.4931C4.82019 75.4075 4.59793 75.2129 3.56136 75.7748C2.45685 76.3735 2.39929 76.2783 3.30356 75.3484C5.02632 73.5767 6.35657 74.5221 5.70446 77.0545C5.3909 78.2722 4.8295 78.9792 4.45686 78.6254H4.45694ZM12.7334 77.772C12.69 76.7698 12.9266 76.2082 13.2594 76.5241C13.5922 76.84 13.6278 77.6601 13.3385 78.3464C13.0188 79.1049 12.7815 78.8796 12.7335 77.772H12.7334ZM14.0645 75.5536C13.6206 74.6384 13.2132 72.0433 13.1591 69.7866C13.0999 67.3195 12.4806 65.3351 11.6057 64.8097C10.3984 64.0846 10.449 63.9334 11.9033 63.9213C13.4771 63.9082 14.113 62.853 13.7743 60.8168C13.7091 60.4246 14.1546 60.1037 14.7643 60.1037C15.374 60.1037 15.5974 60.7852 15.2608 61.6182C14.9241 62.4511 14.3751 64.1673 14.0408 65.432C13.539 67.3301 13.7348 67.6213 15.163 67.1011C16.6884 66.5454 16.7479 66.7282 15.6663 68.6468C14.9917 69.8437 14.6856 72.2617 14.9862 74.0202C15.5918 77.5638 15.2861 78.0724 14.0644 75.5536L14.0645 75.5536ZM35.9623 73.4143C35.8153 71.5612 36.7489 70.9364 37.9546 72.0811C38.6739 72.7639 37.7585 75.3157 36.7943 75.3157C36.4197 75.3157 36.0453 74.4601 35.9623 73.4142L35.9623 73.4143ZM4.60677 71.0374C4.3352 67.0524 4.67907 64.5181 5.61785 63.5863C6.05876 63.1486 6.20782 64.8601 5.94909 67.3894C5.3446 73.2987 4.85211 74.6371 4.60672 71.0374H4.60677ZM10.3066 71.1629C9.89198 69.6632 9.78939 68.2114 10.0786 67.9368C10.885 67.1712 11.8707 70.2332 11.4415 72.1702C11.1606 73.4379 10.8624 73.1732 10.3066 71.1629L10.3066 71.1629ZM19.1639 70.562C18.8234 70.0391 19.0222 69.6112 19.6055 69.6112C20.1888 69.6112 20.666 70.0391 20.666 70.562C20.666 71.085 20.4673 71.5128 20.2244 71.5128C19.9815 71.5128 19.5043 71.085 19.1638 70.562H19.1639ZM0.637002 68.7167C0.637002 68.2246 1.08765 67.5576 1.63844 67.2343C2.18923 66.9112 2.63988 67.3137 2.63988 68.129C2.63988 68.9442 2.18923 69.6113 1.63844 69.6113C1.08765 69.6113 0.637002 69.2087 0.637002 68.7167V68.7167ZM7.64707 66.7029C7.64707 65.1033 8.03728 64.0235 8.5142 64.3034C9.32093 64.7767 8.88085 69.6114 8.03104 69.6114C7.81986 69.6114 7.64707 68.3026 7.64707 66.7029ZM17.5613 66.4421C17.1068 63.5654 17.5513 61.0757 18.9832 58.4871C20.8871 55.044 21.0199 54.3992 19.825 54.3992C19.3627 54.3992 18.4023 55.5759 17.6909 57.0139C16.9542 58.503 16.2039 59.1208 15.9478 58.4491C15.2879 56.7185 19.1455 52.3854 20.3381 53.5177C20.9625 54.1106 21.7875 53.5856 22.6578 52.0415C23.4007 50.7237 24.383 49.6454 24.8408 49.6454C26.1414 49.6454 25.8184 51.1996 24.2631 52.425C22.312 53.9624 19.578 59.6577 19.1116 63.1566C18.7513 65.8589 17.7908 67.8947 17.5613 66.4422V66.4421ZM20.3349 64.3821C22.094 56.2548 31.101 44.8976 37.3371 42.9443C41.5676 41.6187 41.2389 40.8431 36.8035 41.6853C35.0383 42.0205 32.1633 43.7347 30.4146 45.4949C27.1863 48.7444 25.673 49.4622 25.673 47.7444C25.673 47.2215 26.349 46.7937 27.1752 46.7937C28.0014 46.7937 28.6773 46.3658 28.6773 45.8429C28.6773 43.2615 24.2899 46.2943 23.1676 49.6515C22.819 50.6942 21.8724 51.5474 21.064 51.5474C19.1132 51.5474 20.4396 49.2435 24.8236 45.0171C27.4895 42.4471 27.753 41.8856 26.1583 42.1745C24.0861 42.55 17.6522 50.6517 15.047 56.1661C14.2173 57.9221 13.3064 59.1385 13.0227 58.8691C12.739 58.5997 13.1693 57.163 13.9791 55.6764C14.7888 54.1898 15.5527 52.5456 15.6768 52.0226C15.8007 51.4997 16.974 49.8625 18.2841 48.3844C19.5942 46.9063 20.6661 45.1566 20.6661 44.4962C20.6661 43.8359 21.68 42.8222 22.9193 42.2436C24.1586 41.6649 26.7498 40.2663 28.6776 39.1355C31.8466 37.2765 31.944 37.2654 29.694 39.0192C25.4242 42.3471 27.892 41.8813 34.6817 38.0777C38.2595 36.0734 40.5126 34.427 39.6889 34.419C38.3626 34.406 38.3631 34.299 39.6929 33.4828C40.9431 32.7157 40.8592 32.5458 39.1922 32.4694C37.5501 32.3942 37.6897 32.1672 39.9669 31.2096C41.4946 30.5672 42.4096 29.7237 42.0002 29.3351C41.5909 28.9465 42.0309 28.9109 42.978 29.2559C44.0385 29.6423 44.7 29.4283 44.7 28.6988C44.7 27.8257 46.3455 27.6472 50.959 28.0198C55.7764 28.4089 56.699 28.2963 54.9647 27.5311C52.2019 26.3121 52.0577 25.3335 54.6408 25.3335C55.702 25.3335 56.3083 25.7358 55.9882 26.2274C55.6682 26.7191 55.8251 26.8757 56.3369 26.5753C58.2813 25.4344 64.0124 27.3385 64.8121 29.3912C65.5671 31.3287 65.4412 31.3869 62.559 30.433C60.236 29.6641 59.3184 29.7114 58.7199 30.6307C58.1811 31.4584 57.0326 31.6039 55.0721 31.0929C52.3105 30.3731 46.6265 30.5272 41.5345 31.46C40.7358 31.6063 40.9751 33.5381 41.981 35.0655C42.382 35.6745 42.144 36.4121 41.4521 36.7044C40.7602 36.9968 41.7713 37.1539 43.6991 37.0535C46.0022 36.9336 47.1182 37.2681 46.9538 38.0292C46.8088 38.6999 47.7822 39.1874 49.2661 39.1874C50.7196 39.1874 51.5609 38.7759 51.2099 38.2366C50.8695 37.7137 51.223 37.2858 51.9954 37.2858C54.0816 37.2858 64.8025 40.9137 66.3728 42.151C67.1669 42.7767 67.7337 42.8339 67.7337 42.2883C67.7337 41.4401 63.3042 39.0846 56.7178 36.4303C54.5854 35.571 54.8043 35.5108 58.1948 36.0242C60.3841 36.3558 62.7822 37.2031 63.5238 37.9071C64.2655 38.6113 65.3409 39.1875 65.9136 39.1875C66.4863 39.1875 69.1761 40.953 71.8908 43.1109C74.6055 45.2688 77.0555 46.817 77.3352 46.5514C77.9824 45.937 68.5908 38.251 67.1828 38.2428C66.6045 38.2394 65.6049 37.737 64.9617 37.1263C63.2518 35.5029 56.707 33.5136 53.0215 33.4971C51.2639 33.4891 49.5474 33.055 49.2069 32.5321C47.7055 30.2258 62.3595 33.5896 67.6642 36.7692C73.2846 40.1377 84.7575 50.5466 84.7575 52.2777C84.7575 53.3175 84.1838 53.0798 82.7732 51.4557C81.6819 50.1991 80.3266 48.6509 79.7615 48.0152C79.1964 47.3794 78.0318 47.1151 77.1733 47.4278C76.2021 47.7817 74.3137 46.8012 72.1736 44.8319C70.2821 43.0914 68.7345 42.1084 68.7345 42.6474C68.7345 43.1865 70.0865 44.7712 71.7388 46.169C73.3912 47.5668 74.7431 49.1637 74.7431 49.7178C74.7431 50.304 75.61 50.4641 76.8158 50.1008C78.3987 49.6238 79.7943 50.3804 82.7225 53.3027C84.8312 55.4072 86.8237 56.8754 87.1505 56.5653C87.4772 56.2552 87.2551 55.4416 86.657 54.7574C86.059 54.0732 85.7785 52.9642 86.0337 52.293C86.3126 51.5596 87.014 52.1159 87.7913 53.6871C88.5027 55.1251 89.3866 56.3018 89.7556 56.3018C90.1246 56.3018 91.8829 58.2271 93.6629 60.5802C95.4429 62.9333 96.586 64.8586 96.2033 64.8586C95.3995 64.8586 92.2159 61.5477 90.0404 58.4492C89.2175 57.2771 88.1347 56.5583 87.6342 56.852C87.1337 57.1457 87.7463 58.6832 88.9956 60.2688C93.5593 66.0608 93.9972 66.7602 93.0609 66.7602C92.5364 66.7602 90.7275 64.9418 89.0412 62.7194C85.641 58.2382 82.3997 54.8882 78.6988 52.0301L76.2453 50.1354L78.6694 52.7395C80.0027 54.1716 80.7898 55.6318 80.4187 55.9842C80.0475 56.3366 77.4399 54.1929 74.6239 51.2204C66.8113 42.9737 60.6029 39.4384 59.3553 42.5255C58.997 43.412 59.2538 43.9569 59.9877 43.8674C60.6674 43.7844 61.931 43.7673 62.7958 43.8291C64.9211 43.9814 72.8385 50.5036 72.5655 51.8773C72.4455 52.4805 72.7093 53.9901 73.1516 55.2319C74.5341 59.1131 71.6856 59.6635 68.5048 56.1296C65.6003 52.9027 65.5349 51.3407 68.397 53.5517C69.917 54.7259 70.0317 54.6754 69.4113 53.1059C68.8841 51.7723 69.0847 51.4721 70.2252 51.8876C72.9044 52.8636 71.744 51.1552 67.573 47.9826C63.347 44.7681 61.7244 44.1895 61.7244 45.8972C61.7244 46.4615 60.7526 46.2557 59.5074 45.4276C58.288 44.6168 55.0328 43.669 52.2734 43.3215C48.6483 42.865 47.8048 42.506 49.2329 42.0277C50.3199 41.6637 52.548 41.7287 54.1843 42.1722C56.3742 42.7659 57.554 42.604 58.655 41.5587C59.5536 40.7057 59.6985 40.1388 59.0181 40.1388C58.3952 40.1388 57.7138 40.6279 57.5038 41.2258C57.2175 42.0414 56.5879 42.0414 54.9826 41.2258C53.8059 40.6279 51.2362 40.1388 49.2722 40.1388C47.3082 40.1388 45.7013 39.7109 45.7013 39.1879C45.7013 38.665 45.2648 38.2372 44.7313 38.2372C44.1978 38.2372 44.0489 38.9859 44.4004 39.901C45.0031 41.4702 44.9289 41.473 43.0943 39.9491C41.7555 38.8371 40.6878 38.6102 39.6698 39.2214C38.5645 39.885 38.5251 40.1133 39.5139 40.1242C40.2417 40.1321 41.4609 40.7308 42.2231 41.4545C43.4033 42.5751 43.1685 42.854 40.6402 43.334C37.5883 43.9135 31.7802 47.3347 30.4073 49.3616C29.982 49.9895 29.0807 51.0756 28.4044 51.7754C27.0389 53.1881 24.6711 56.955 24.6711 57.7149C24.6711 57.9835 25.1217 58.2032 25.6725 58.2032C26.2233 58.2032 26.6739 57.6655 26.6739 57.0084C26.6739 54.8308 35.1215 46.8737 39.0707 45.3312C44.1241 43.3572 57.1261 43.8401 53.6617 45.873C52.9909 46.2666 51.1091 46.2256 49.4798 45.7819C42.238 43.8101 33.1219 48.5672 28.7229 56.6133C27.7087 58.4686 26.7058 59.1356 25.4133 58.8146C24.0828 58.4843 23.2868 59.0717 22.5964 60.8934C22.0672 62.2899 21.2026 64.2882 20.6751 65.3341C19.9194 66.8327 19.847 66.6312 20.3335 64.3834L20.3349 64.3821ZM38.1444 38.711C41.251 36.4463 39.0345 37.0556 34.686 39.6618C32.5048 40.9691 30.2605 42.0388 29.6987 42.0388C29.137 42.0388 28.6774 42.6676 28.6774 43.4362C28.6774 44.7979 32.221 43.0292 38.1444 38.7109L38.1444 38.711ZM49.958 29.0491C49.2695 28.7854 48.1428 28.7854 47.4544 29.0491C46.7659 29.3129 47.3292 29.5287 48.7062 29.5287C50.0831 29.5287 50.6464 29.3129 49.958 29.0491V29.0491ZM22.975 63.9227C23.5987 62.354 24.4609 61.0704 24.8909 61.0704C25.9315 61.0704 25.8824 61.4951 24.5106 64.3533C22.8816 67.7479 21.5974 67.3878 22.975 63.9227H22.975ZM1.2764 62.4966C1.59344 61.7122 2.53575 61.0704 3.37044 61.0704C4.60593 61.0704 4.65631 61.3356 3.6414 62.4966C2.95573 63.2809 2.01341 63.9227 1.54735 63.9227C1.0813 63.9227 0.959364 63.2809 1.2764 62.4966ZM9.27435 60.1509C9.88956 56.9334 11.4936 53.4676 12.809 52.5135C13.1695 52.2521 13.5407 51.6103 13.6338 51.0874C13.727 50.5645 14.9112 48.2113 16.2652 45.8581C18.0701 42.7215 20.6735 40.3745 26.0203 37.0636C30.0315 34.5797 33.9602 32.5538 34.7507 32.5615C36.1204 32.5748 33.4827 34.2992 29.1778 36.2046C28.0763 36.6922 25.1222 38.8127 22.6133 40.917C18.4358 44.4206 16.6122 47.2925 9.81583 61.0701C8.72699 63.2775 8.68836 63.2121 9.27375 60.1505L9.27435 60.1509ZM11.1949 62.0869C10.878 61.6001 11.0768 60.9331 11.6366 60.6046C12.1963 60.2761 12.6543 60.6744 12.6543 61.4897C12.6543 63.1596 12.0534 63.4055 11.195 62.0868L11.1949 62.0869ZM72.3237 61.4097C71.4853 59.3355 72.5985 58.3714 73.7813 60.1473C74.9656 61.9251 74.9908 62.972 73.8493 62.972C73.3575 62.972 72.6709 62.269 72.3237 61.4097H72.3237ZM5.64431 60.4178C5.64431 59.9308 6.30595 58.7018 7.11456 57.6868C8.3498 56.1363 8.58997 56.0887 8.61672 57.3887C8.63425 58.2398 7.9726 59.4687 7.14647 60.1197C6.32028 60.7707 5.64431 60.9048 5.64431 60.4178V60.4178ZM2.64 59.4017C2.64 58.8788 3.31597 57.9185 4.14216 57.2674C4.9801 56.6072 5.64431 56.5042 5.64431 57.0346C5.64431 57.5575 4.96834 58.5179 4.14216 59.1689C3.30421 59.8292 2.64 59.9321 2.64 59.4017V59.4017ZM0.637123 56.7572C0.637123 55.0606 3.36097 50.0157 5.39395 47.947C6.08244 47.2464 6.64575 46.0833 6.64575 45.3622C6.64575 44.6412 7.43062 43.6343 8.38987 43.1245C9.34917 42.6148 9.84764 41.9259 9.49752 41.5935C8.58644 40.7285 3.96322 45.3488 4.42471 46.6631C4.63647 47.2663 4.09621 47.7597 3.22414 47.7597C2.35207 47.7597 1.63849 48.1876 1.63849 48.7105C1.63849 49.2334 1.13436 49.6612 0.518193 49.6612C-1.15959 49.6612 4.15447 43.2285 10.793 37.2231C16.6613 31.9148 17.5886 30.6458 15.5994 30.6458C15.0161 30.6458 14.8604 31.1398 15.2534 31.7435C15.6662 32.3776 15.531 32.5847 14.9333 32.234C14.3642 31.9001 11.2912 34.3606 8.10445 37.7018C4.43579 41.5484 1.7796 43.5834 0.863335 43.2496C-0.340359 42.8111 -0.302859 42.5732 1.0859 41.8353C2.00418 41.3474 5.59405 38.2265 9.06345 34.9002C13.5766 30.573 15.6788 29.144 16.452 29.878C17.2251 30.612 17.9987 30.4614 19.1706 29.3487C21.0122 27.6003 21.667 27.4095 21.667 28.6212C21.667 29.4847 15.9701 34.8863 11.6526 38.1166C10.2757 39.1468 9.46676 40.2926 9.85532 40.6629C10.7395 41.5056 20.559 33.4525 20.6204 31.8342C20.6453 31.1806 21.7229 30.6457 23.0152 30.6457C25.9284 30.6457 31.8792 27.9159 31.2093 26.8868C30.752 26.1842 35.9948 24.4785 41.5808 23.5124C42.8946 23.2852 44.2466 22.8105 44.5851 22.4575C44.9237 22.1045 43.7137 22.0847 41.8963 22.4134C39.6018 22.8284 38.8017 22.6888 39.2784 21.9566C40.5135 20.0593 60.2153 22.7271 70.2368 26.1487C71.8892 26.7129 75.6259 28.6507 78.5405 30.4551C83.4111 33.4704 85.8304 34.0138 84.3656 31.7635C82.9408 29.5747 66.1674 22.8562 58.01 21.2069C53.1681 20.2279 50.5586 19.3931 52.211 19.3516C53.8633 19.3103 58.1445 19.9209 61.7246 20.7087C65.3047 21.4964 68.7972 22.2006 69.4858 22.2734C70.1743 22.3462 70.7376 22.7624 70.7376 23.1982C70.7376 23.6339 71.3009 23.9931 71.9894 23.9963C72.6778 23.9997 74.5574 24.6538 76.1661 25.4503C77.7747 26.2467 79.467 26.5413 79.9267 26.1049C80.3864 25.6686 78.9575 24.5555 76.7515 23.6315C74.5454 22.7075 72.7404 21.6169 72.7404 21.2082C72.7404 20.7994 74.9937 21.4888 77.7476 22.7401C80.5016 23.9914 82.7548 25.4516 82.7548 25.985C82.7548 26.5185 82.3353 26.7088 81.8226 26.408C81.3099 26.1071 80.6073 26.2958 80.2613 26.8273C79.9153 27.3587 80.0406 27.7935 80.5396 27.7935C81.8055 27.7935 85.7591 31.1547 85.7591 32.2309C85.7591 32.7187 85.227 33.6229 84.5766 34.2403C83.6676 35.1033 82.6834 34.8661 80.3205 33.2144C73.8435 28.6868 61.3438 24.3747 52.3863 23.5774C49.8215 23.3491 47.2684 22.8956 46.7127 22.5695C46.157 22.2434 45.7023 22.4296 45.7023 22.9834C45.7023 23.5372 45.0263 23.9903 44.2001 23.9903C43.3739 23.9903 42.698 24.4182 42.698 24.9411C42.698 26.0496 42.8745 26.0528 48.3669 25.0429C51.7391 24.4228 52.4318 24.529 51.9989 25.5997C51.7048 26.3273 50.7311 26.8553 49.8349 26.7732C44.6109 26.2941 40.695 26.9349 40.695 28.2689C40.695 30.1105 39.2842 30.0919 37.6555 28.2286C36.7347 27.1752 36.0678 27.0525 35.2881 27.7928C34.5082 28.5332 34.6085 29.0617 35.644 29.6693C36.7463 30.316 36.3907 30.673 34.1335 31.1856C27.5514 32.6805 11.4776 44.6226 9.54258 49.4561C8.16699 52.891 8.55127 54.2205 10.1514 51.563C11.89 48.6755 12.102 49.5883 10.4785 52.9714C9.62341 54.7531 9.07791 55.089 8.47558 54.2046C7.8191 53.2406 7.45194 53.2785 6.70087 54.3878C6.18004 55.157 5.43984 55.4882 5.05596 55.1238C4.67213 54.7594 4.92813 53.8092 5.62485 53.0122C6.32156 52.2151 6.61551 51.563 6.27807 51.563C5.94063 51.563 6.44875 50.6285 7.40724 49.4865C10.2428 46.1078 20.6666 36.1111 20.6666 36.7694C20.6666 37.1032 21.2299 36.9255 21.9184 36.3746C24.9492 33.9494 30.8941 30.6461 32.2275 30.6461C33.675 30.6461 34.3721 28.7569 32.9341 28.731C30.7364 28.6913 18.9202 35.4952 14.748 39.2028C9.78874 43.6097 2.64024 53.4108 2.64024 55.8036C2.64024 56.547 2.18959 57.4197 1.6388 57.7428C1.08801 58.066 0.637364 57.6224 0.637364 56.7571L0.637123 56.7572ZM40.6947 25.8926C41.8652 25.1744 41.5889 24.9677 39.4429 24.9564C37.9282 24.9484 36.6889 25.3697 36.6889 25.8926C36.6889 27.0947 38.7353 27.0947 40.6947 25.8926V25.8926ZM92.5192 56.2378C91.5553 55.2355 90.9933 54.4156 91.2703 54.4156C91.5473 54.4156 89.9345 52.8379 87.6863 50.9096C85.4382 48.9813 81.7191 45.7491 79.4216 43.7271C77.1241 41.705 72.3152 38.3649 68.735 36.3046C61.8773 32.3579 61.5887 31.1746 68.2966 34.5071C75.4688 38.0702 76.7413 38.8915 76.073 39.526C75.709 39.8715 75.8469 40.1542 76.3793 40.1542C76.9118 40.1542 77.7935 39.7306 78.3389 39.2128C78.9933 38.5915 81.1894 39.5927 84.7981 42.1575C87.8053 44.2948 90.417 46.4324 90.6017 46.9078C90.7865 47.3832 91.3498 47.5302 91.8535 47.2347C92.3573 46.9391 92.7694 47.6528 92.7694 48.8206V50.944L90.0746 48.639C88.5925 47.3713 85.5912 44.7467 83.4051 42.8067C81.219 40.8666 79.0495 39.5027 78.584 39.7759C77.865 40.1977 84.3004 46.8095 85.4299 46.8095C85.6454 46.8095 87.4605 48.5017 89.4636 50.5701C91.4667 52.6383 93.3679 54.177 93.6886 53.989C94.0092 53.8011 94.3366 54.6759 94.416 55.933C94.4954 57.1901 94.4954 58.1831 94.416 58.1394C94.3366 58.0959 93.483 57.2401 92.5191 56.2379L92.5192 56.2378ZM44.7014 42.047C44.7014 41.5241 45.152 41.0962 45.7028 41.0962C46.2536 41.0962 46.7042 41.5241 46.7042 42.047C46.7042 42.5699 46.2536 42.9977 45.7028 42.9977C45.152 42.9977 44.7014 42.5699 44.7014 42.047ZM86.6459 41.2281C85.3323 40.2548 81.1319 37.4738 77.3116 35.0481C73.4913 32.6225 71.0128 30.6496 71.8037 30.6639C72.5947 30.6783 76.1613 32.5686 79.7294 34.8644C83.2975 37.1602 86.6329 38.7945 87.1415 38.4961C87.65 38.1978 87.3085 37.4278 86.3827 36.7851C84.9086 35.7617 84.8898 35.5472 86.231 35.0585C87.0761 34.7506 87.797 35.0198 87.8392 35.6591C87.9525 37.3715 88.4799 39.4561 89.2752 41.3338C90.1723 43.4523 89.6177 43.43 86.6458 41.228L86.6459 41.2281ZM1.66279 38.6731C1.63375 37.4242 8.39959 30.69 13.1119 27.2772C16.4164 24.8842 17.6629 23.0024 15.91 23.0528C15.4969 23.0646 12.4888 25.4142 9.22552 28.2741C5.96209 31.1339 3.1274 33.3174 2.92623 33.1264C2.22547 32.4611 9.9898 24.9327 11.3767 24.9327C12.145 24.9327 12.5152 24.5357 12.1993 24.0504C11.8834 23.5651 12.5328 22.8945 13.6423 22.5602C14.7519 22.2259 15.6597 21.5533 15.6597 21.0656C15.6597 20.5779 16.2593 20.179 16.9921 20.179C17.7249 20.179 20.5415 19.0715 23.2511 17.718C26.0881 16.3008 27.0921 15.4823 25.6183 15.7882C20.48 16.8546 14.0559 20.1646 9.81697 23.9297C7.42998 26.0501 5.33761 27.785 5.16726 27.785C4.99698 27.785 4.56031 27.0493 4.19687 26.1502C3.83344 25.251 3.84447 24.8081 4.2214 25.166C5.10252 26.0025 8.64906 24.2208 8.64906 22.9417C8.64906 22.4063 8.12879 22.2735 7.4929 22.6466C6.77657 23.0669 6.60856 22.9075 7.05128 22.2274C7.44429 21.6237 8.64053 21.1297 9.70963 21.1297C10.7787 21.1297 11.6534 20.7397 11.6534 20.2629C11.6534 19.5392 20.3754 16.0177 26.9257 14.0972C27.8895 13.8146 28.6712 12.8212 28.6628 11.8896C28.6504 10.5136 28.478 10.4503 27.7437 11.5517C27.2467 12.2974 25.789 13.058 24.5044 13.2419C23.2199 13.4258 19.3172 14.8411 15.8318 16.387C12.3465 17.9328 9.64252 18.7766 9.82319 18.2622C10.0038 17.7477 10.5061 17.4337 10.9392 17.5644C11.3724 17.6951 12.1196 17.1987 12.5998 16.4612C13.5673 14.9749 22.1427 11.6242 24.9822 11.6229C25.9786 11.6225 26.5234 11.2068 26.1931 10.6992C25.8626 10.1916 26.8263 9.48232 28.3345 9.123C30.078 8.70753 31.2174 8.87044 31.4632 9.57046C31.6758 10.176 32.3111 10.6714 32.8749 10.6714C33.4387 10.6714 33.6577 10.0718 33.3615 9.33897C33.03 8.51879 33.6625 7.79267 35.0069 7.45042C38.4566 6.57205 39.3363 6.82605 37.4805 8.16461C36.5383 8.84423 35.3101 10.5419 34.7513 11.9373C33.863 14.1556 33.984 14.4745 35.7134 14.4745C36.8014 14.4745 37.6915 14.0385 37.6915 13.5056C37.6915 12.9727 38.7054 12.7763 39.9447 13.0692C41.184 13.362 44.0005 13.1665 46.2037 12.6348L50.2094 11.668L44.9519 11.9809C40.1391 12.2674 37.9103 11.3902 40.9461 10.4044C41.6346 10.1809 41.0713 10.1797 39.6943 10.4021C37.8727 10.6961 37.4872 10.5194 38.2789 9.75335C40.0049 8.08336 45.0552 7.47438 44.434 9.01122C44.1285 9.76715 44.6645 10.336 45.756 10.414C46.9672 10.5007 47.4044 10.0816 47.041 9.18229C46.738 8.4327 47.0031 7.81933 47.6301 7.81933C48.2571 7.81933 49.0285 8.45861 49.3444 9.23999C49.6602 10.0214 50.3701 10.3958 50.922 10.0719C51.5394 9.70965 51.4027 9.16363 50.5667 8.6526C48.3028 7.26859 58.987 9.42379 67.7344 12.1156C68.0098 12.2003 70.0376 13.0409 72.2408 13.9834C78.5272 16.673 74.6626 16.7463 67.723 14.0692C59.7309 10.986 55.8278 10.3199 52.7134 11.5073L50.2098 12.4617L52.7134 12.4122C56.9243 12.3288 65.4785 14.3135 69.6807 16.3485C71.8715 17.4096 74.3844 18.2777 75.2651 18.2777C76.1457 18.2777 76.5887 18.7039 76.2496 19.225C75.8628 19.819 74.491 19.6117 72.5703 18.6687C70.3686 17.5877 69.2024 17.455 68.4211 18.1968C67.6399 18.9385 67.7963 19.2284 68.9778 19.2284C69.8816 19.2284 70.9295 19.7021 71.3064 20.2811C71.7516 20.9651 71.334 21.1446 70.1137 20.7938C61.4922 18.3151 51.606 17.1522 42.7661 17.5771C34.2639 17.9856 33.5132 17.8898 35.2553 16.6185C37.0933 15.2771 37.0536 15.2285 34.4672 15.6537C32.9692 15.9 31.9818 15.7355 32.2731 15.2881C32.5643 14.8407 31.8747 14.4747 30.7406 14.4747C29.6065 14.4747 28.6785 14.9278 28.6785 15.4816C28.6785 16.0353 29.1404 16.2175 29.7048 15.8863C30.2692 15.5551 30.6072 15.8508 30.4559 16.5433C30.3045 17.2358 30.7775 17.6848 31.5069 17.5411C32.2363 17.3974 32.5477 17.7183 32.1989 18.2542C31.8501 18.7901 30.9153 19.2285 30.1216 19.2285C29.328 19.2285 28.6786 19.6816 28.6786 20.2354C28.6786 20.7892 28.2236 20.9752 27.6675 20.6489C27.1114 20.3226 25.4734 20.9392 24.0274 22.019C22.5815 23.0988 20.8385 23.9822 20.154 23.9822C19.4695 23.9822 18.3484 24.624 17.6628 25.4084C15.8469 27.4857 17.5958 27.1072 22.1693 24.4328C26.7127 21.7759 28.5119 21.4064 26.6758 23.5069C25.9901 24.2913 25.7648 24.933 26.1751 24.933C26.5853 24.933 26.36 25.5748 25.6743 26.3592C24.9887 27.1435 23.9461 27.7853 23.3574 27.7853C22.7688 27.7853 23.162 27.1572 24.2311 26.3895C26.151 25.0108 26.1511 24.9932 24.2371 24.9633C23.171 24.9467 21.2321 25.8845 19.9282 27.0474C17.9457 28.8156 17.4111 28.9364 16.6618 27.7854C15.6702 26.2621 14.3703 27.1927 6.03583 35.3915C3.6438 37.7446 1.67619 39.2213 1.66348 38.6731L1.66279 38.6731ZM29.0644 17.6078C27.3031 17.0504 16.2465 22.321 17.226 23.251C17.53 23.5396 20.5495 22.4612 23.936 20.8546C27.3226 19.2479 29.6302 17.7869 29.0643 17.6078H29.0644ZM67.734 17.3466C67.734 16.8961 66.2694 16.2018 64.4793 15.8038C62.6892 15.4057 60.5486 14.9245 59.7225 14.7344C56.6113 14.0187 40.5346 14.4656 38.9415 15.3121C37.8154 15.9104 39.8464 16.1771 45.2466 16.1399C54.9056 16.0734 64.486 17.135 65.2838 18.36C65.9374 19.364 67.734 18.621 67.734 17.3466V17.3466ZM75.2695 36.9998C69.6723 33.7952 66.362 31.5888 67.1511 31.5888C68.6928 31.5888 78.7497 36.7073 78.7497 37.492C78.7497 38.5119 77.6352 38.3543 75.2693 36.9998H75.2695ZM33.6848 35.8673C34.3705 35.0829 35.3822 34.4411 35.9329 34.4411C36.4915 34.4411 36.3831 35.0717 35.6877 35.8673C35.002 36.6516 33.9903 37.2934 33.4396 37.2934C32.881 37.2934 32.9894 36.6628 33.6848 35.8673ZM47.2045 35.3919L43.1987 34.7109L47.4548 34.576C49.7956 34.5019 51.711 34.8689 51.711 35.3919C51.711 35.9148 51.5983 36.2819 51.4606 36.2077C51.3229 36.1334 49.4077 35.7664 47.2045 35.3919V35.3919ZM42.698 33.1258C42.698 32.9253 43.8246 32.5567 45.2016 32.3068C46.5785 32.0569 47.7052 32.2209 47.7052 32.6714C47.7052 33.1218 46.5786 33.4903 45.2016 33.4903C43.8247 33.4903 42.698 33.3263 42.698 33.1258V33.1258ZM67.2997 29.7319C66.2347 29.3648 65.8056 28.805 66.3461 28.4879C67.3791 27.8817 70.5222 29.2877 69.7078 29.9916C69.4483 30.2159 68.3647 30.099 67.2997 29.7319H67.2997ZM27.7964 25.6722C28.8734 23.7615 32.638 21.9976 34.0032 22.7638C34.4534 23.0165 35.0692 22.3245 35.3718 21.2261C35.6744 20.1276 35.9821 19.2062 36.0555 19.1784C36.129 19.1506 38.7305 18.9011 41.8367 18.6239C45.4604 18.3006 47.7322 18.5007 48.1758 19.1822C48.6478 19.9073 47.9677 20.0867 46.0332 19.7474C42.1099 19.0592 36.6898 20.1397 36.6898 21.6098C36.6898 23.0895 34.1441 24.2923 29.9615 24.7885C29.2903 24.8682 28.9717 25.5038 29.2535 26.201C29.5391 26.9076 29.1059 27.4687 28.2747 27.4687C27.1229 27.4687 27.0141 27.0598 27.7964 25.6719L27.7964 25.6722ZM77.0178 20.556C77.3506 20.2401 78.2143 20.2063 78.9372 20.4809C79.736 20.7844 79.4988 21.0096 78.3321 21.0553C77.2765 21.0965 76.6849 20.8719 77.0177 20.5559L77.0178 20.556ZM14.6582 11.6229C15.4844 11.1159 16.8364 10.7012 17.6625 10.7012C18.9978 10.7012 18.9978 10.8036 17.6625 11.6229C16.8363 12.1298 15.4844 12.5445 14.6582 12.5445C13.3229 12.5445 13.3229 12.4421 14.6582 11.6229ZM66.7323 10.1967C65.3554 9.4494 62.9895 8.82277 61.4747 8.8042C59.9601 8.78564 58.7208 8.29283 58.7208 7.70894C58.7208 7.08658 57.6751 6.83713 56.1933 7.10605C54.8032 7.35834 53.4722 7.26732 53.2355 6.90377C52.9989 6.54021 49.7425 6.35046 45.9991 6.48209C42.0602 6.6206 40.0284 6.41459 41.1761 5.99293C42.2668 5.59223 47.8336 5.20763 53.5465 5.13832C62.2018 5.03331 63.7454 5.22796 62.8033 6.3056C61.8957 7.34388 62.4183 7.74588 65.4542 8.34472C67.534 8.75494 69.5309 9.0321 69.8917 8.96061C70.2526 8.88909 70.8017 9.45888 71.1121 10.2267C71.8199 11.9778 69.9908 11.9653 66.7321 10.1967H66.7323ZM19.6654 10.2748C19.6654 9.94443 20.8191 9.25775 22.2292 8.7488C23.7893 8.18567 24.5128 7.39286 24.0774 6.72386C23.6837 6.11917 23.7811 5.87057 24.2937 6.17137C25.7141 7.0048 36.8957 4.28723 37.8074 2.88705C38.4285 1.9329 38.8781 1.91121 39.8045 2.7907C41.1379 4.05649 40.7447 4.24384 29.6795 7.61468C26.0994 8.70532 22.3815 9.88525 21.4176 10.2366C20.4538 10.588 19.6651 10.6052 19.6651 10.2748L19.6654 10.2748ZM40.9634 2.96546C40.8239 1.20709 41.1937 1.03525 44.0049 1.55141C52.1625 3.04931 57.311 2.84316 56.1534 1.06481C55.8486 0.596683 55.8354 0.213684 56.1239 0.213684C56.4124 0.213684 57.114 1.03949 57.6831 2.04878C58.6593 3.7805 58.319 3.88517 51.6468 3.90522C47.7579 3.91695 43.799 4.16059 42.8492 4.4468C41.6124 4.8195 41.0773 4.39924 40.9634 2.96546H40.9634ZM29.1796 2.62171C33.4563 1.3541 36.51 1.33484 35.6889 2.5807C35.4135 2.99852 32.9349 3.44582 30.181 3.57468L25.1738 3.80901L29.1796 2.62164V2.62171Z" fill="#9DD8D2"/>
</svg>
